<svg xmlns="http://www.w3.org/2000/svg" viewBox="0 0 24 24" fill="currentColor"><path d="M6.965 19.2c.53 0 .96-.43.96-.96L7.924 8.074l2.44 2.44a.96.96 0 0 0 1.358-1.358L7.685 5.12l-.063-.057a.957.957 0 0 0-1.339.022l-.041.039L2.204 9.16a.96.96 0 1 0 1.358 1.358l2.442-2.442.001 10.163c0 .53.43.96.96.96M17.042 4.803a.96.96 0 0 0-.96.96l.001 10.165-2.44-2.44a.96.96 0 0 0-1.358 1.357l4.038 4.037q.03.03.062.057a.957.957 0 0 0 1.34-.021l.04-.04 4.038-4.036a.96.96 0 1 0-1.357-1.358l-2.443 2.442V5.763a.96.96 0 0 0-.96-.96"/></svg>