<svg xmlns="http://www.w3.org/2000/svg" viewBox="0 0 24 24" fill="currentColor"><path d="M17.1 8.64a2.641 2.641 0 1 1-4.92-1.922A2.641 2.641 0 0 1 17.1 8.64M11.82 17.28a2.641 2.641 0 1 1-4.92-1.922 2.641 2.641 0 0 1 4.92 1.922M21.12 8.64h-2.514a4.1 4.1 0 0 0 0-1.92h2.514a.96.96 0 1 1 0 1.92M10.56 7.68q.002-.497.114-.96H2.88a.96.96 0 0 0 0 1.92h7.794a4 4 0 0 1-.114-.96M21.12 17.28h-7.794a4.1 4.1 0 0 0 0-1.92h7.794a.96.96 0 1 1 0 1.92M5.28 16.32q.001-.496.114-.96H2.88a.96.96 0 1 0 0 1.92h2.514a4 4 0 0 1-.114-.96"/></svg>