<svg xmlns="http://www.w3.org/2000/svg" viewBox="0 0 24 24" fill="currentColor"><path d="M6.957 4.805a.96.96 0 0 0-.96.96V15.93l-2.44-2.44A.96.96 0 0 0 2.2 14.847l4.037 4.037q.03.03.063.057a.957.957 0 0 0 1.339-.021l.041-.04 4.038-4.036a.96.96 0 1 0-1.358-1.358l-2.442 2.442-.001-10.163a.96.96 0 0 0-.96-.96M22.08 7.2a.96.96 0 0 0-.96-.96h-6.435a.96.96 0 0 0 0 1.92h6.435c.53 0 .96-.43.96-.96M20.4 12a.96.96 0 0 0-.96-.96h-4.8a.96.96 0 0 0 0 1.92h4.8c.53 0 .96-.43.96-.96M17.52 15.84a.96.96 0 1 1 0 1.92h-2.765a.96.96 0 1 1 0-1.92z"/></svg>