<svg xmlns="http://www.w3.org/2000/svg" viewBox="0 0 24 24" fill="currentColor"><path d="M6.962 19.2c.53 0 .96-.43.96-.96L7.92 8.075l2.44 2.44a.96.96 0 0 0 1.358-1.358L7.68 5.12l-.062-.057a.957.957 0 0 0-1.34.022l-.04.039L2.2 9.16a.96.96 0 1 0 1.357 1.357l2.443-2.442V18.24c0 .53.43.96.96.96M22.08 7.2a.96.96 0 0 0-.96-.96h-6.435a.96.96 0 0 0 0 1.92h6.435c.53 0 .96-.43.96-.96M19.44 11.04a.96.96 0 1 1 0 1.92h-4.8a.96.96 0 1 1 0-1.92zM18.48 16.8a.96.96 0 0 0-.96-.96h-2.765a.96.96 0 0 0 0 1.92h2.765c.53 0 .96-.43.96-.96"/></svg>