<svg xmlns="http://www.w3.org/2000/svg" viewBox="0 0 24 24" fill="currentColor"><path d="M16.4 2.16c1.318 0 2.225.518 2.782 1.236.52.672.738 1.459.738 1.963 0 .18-.016.512-.103.901-.175.782-.96 1.18-1.75 1.18H5.932c-.79 0-1.575-.398-1.75-1.18a4.2 4.2 0 0 1-.103-.901c0-.504.217-1.291.738-1.963C5.375 2.678 6.282 2.16 7.6 2.16c1.74 0 3.023 1.027 3.847 2.198.205.292.39.599.553.91.163-.311.348-.618.553-.91.824-1.171 2.108-2.198 3.847-2.198M10.157 8.88c.488 0 .883.4.883.892v3.983a.887.887 0 0 1-.883.892H3.762a.887.887 0 0 1-.882-.892v-2.497c0-1.313 1.054-2.378 2.353-2.378zM20.237 14.647c.488 0 .883-.4.883-.892v-2.497c0-1.313-1.054-2.378-2.354-2.378h-4.923c-.488 0-.883.4-.883.892v3.983c0 .493.395.892.882.892zM11.04 21.188a.887.887 0 0 1-.883.892H5.233c-1.3 0-2.353-1.065-2.353-2.378v-2.25c0-.493.395-.892.882-.892h6.395c.488 0 .883.4.883.892zM13.843 22.08a.887.887 0 0 1-.883-.892v-3.736c0-.493.395-.892.882-.892h6.395c.488 0 .883.4.883.892v2.25c0 1.313-1.054 2.378-2.354 2.378z"/></svg>