<svg xmlns="http://www.w3.org/2000/svg" viewBox="0 0 24 24" fill="currentColor"><path d="M6.022 18.704c0 .57-.42.971-1.01.971-.554 0-1.012-.36-1.012-1.072v-.35c0-.684.331-1.182.946-1.298l.908-.112v.365l-.822.097c-.373.075-.6.313-.622.808.141-.283.417-.358.67-.358.544 0 .942.383.942.949m-.417-.004a.567.567 0 0 0-.588-.588.57.57 0 0 0-.592.588c0 .35.245.592.592.592a.566.566 0 0 0 .588-.592M8.238 18.816q.002-.092-.004-.176c-.048-.626-.445-.97-.982-.97-.574 0-.986.435-.986 1.008 0 .603.43 1.001 1.016 1.001.433 0 .777-.253.897-.578h-.412a.58.58 0 0 1-.482.225c-.319 0-.567-.209-.593-.51zm-1.546-.324c.022-.275.256-.476.56-.476.315 0 .537.204.549.476zM8.382 19.273c.149-.007.305-.089.305-.398V17.71h1.517v1.932h-.421V18.09H9.1v.792c0 .536-.316.778-.722.771zM11.353 18.61l.925-.9h-.49l-.512.497-.288.28v-.777h-.42100000000000004v1.932h.42100000000000004v-.906l.284.32.52.586h.49z"/><path d="m13.962 17.708-.051.287a.95.95 0 0 0-.707-.324h-.023a.9.9 0 0 0-.668.268q-.013.011-.024.024l-.013.015a1.03 1.03 0 0 0-.245.694v.008c0 .275.088.517.245.694l.013.015q.01.013.023.024c.163.166.39.268.67.268h.022a.95.95 0 0 0 .707-.324v.287h.428v-1.936zm-.673 1.586c-.365 0-.625-.257-.625-.618s.26-.618.625-.618a.6.6 0 0 1 .618.618.6.6 0 0 1-.618.618M14.703 17.708v2.806h.428v-1.157a.95.95 0 0 0 .708.324h.022a.9.9 0 0 0 .669-.268l.024-.024.013-.015c.156-.177.244-.419.244-.694v-.008c0-.275-.088-.517-.244-.694l-.013-.015-.024-.024a.9.9 0 0 0-.669-.268h-.023a.95.95 0 0 0-.707.324l-.05-.287zm.432.968a.6.6 0 0 1 .618-.618c.365 0 .626.257.626.618s-.26.618-.626.618a.6.6 0 0 1-.618-.618M20 18.437v1.208h-.426v-1.1c0-.35-.179-.507-.417-.507-.246 0-.433.164-.433.507v1.1H18.3v-1.1c0-.35-.182-.507-.413-.507-.25 0-.437.164-.437.507v1.1h-.429V17.71h.375l.048.28c.112-.198.297-.32.584-.32.261 0 .475.107.59.32.127-.198.339-.32.652-.32.436 0 .73.294.73.767M11.34 12.772l-2.023 1.984a.38.38 0 0 0-.087.419.38.38 0 0 0 .355.24l3.56.01a.507.507 0 0 0 .507-.539 3 3 0 0 0-.854-2.1 1.03 1.03 0 0 0-1.457-.014M9.016 11.263l-2.834-.028a.38.38 0 0 0-.357.235.38.38 0 0 0 .081.42l2.51 2.525c.193.195.51.198.708.008l.031-.03c.553-.55.874-1.31.882-2.09a1.03 1.03 0 0 0-1.02-1.04M6.283 10.863h.043a3 3 0 0 0 2.101-.853 1.03 1.03 0 0 0 .014-1.457L6.457 6.529a.38.38 0 0 0-.419-.086.38.38 0 0 0-.24.354l-.01 3.56c-.002.275.22.501.495.506M6.82 6.369c.55.553 1.309.873 2.09.881a1.03 1.03 0 0 0 1.04-1.02l.028-2.834a.38.38 0 0 0-.235-.358.38.38 0 0 0-.42.082L6.797 5.63a.507.507 0 0 0-.007.707zM12.66 5.654l2.023-1.984a.38.38 0 0 0 .087-.42.38.38 0 0 0-.354-.239L10.856 3a.507.507 0 0 0-.507.54c-.003.78.307 1.542.853 2.1a1.03 1.03 0 0 0 1.458.014M14.983 7.163l2.834.028c.19.002.31-.12.358-.235a.38.38 0 0 0-.082-.42l-2.51-2.526a.507.507 0 0 0-.739.023 3 3 0 0 0-.881 2.09 1.03 1.03 0 0 0 1.02 1.04M17.718 7.562h-.044a3 3 0 0 0-2.1.853 1.03 1.03 0 0 0-.015 1.458l1.984 2.023a.38.38 0 0 0 .42.087.38.38 0 0 0 .239-.355l.011-3.56a.507.507 0 0 0-.495-.506M17.18 12.057a3 3 0 0 0-2.09-.881 1.03 1.03 0 0 0-1.04 1.02l-.027 2.834c-.002.19.12.31.234.357a.38.38 0 0 0 .42-.081l2.526-2.51a.507.507 0 0 0-.023-.739"/></svg>