<svg xmlns="http://www.w3.org/2000/svg" viewBox="0 0 24 24" fill="currentColor"><path fill-rule="evenodd" d="M6.443 14.1c-1.168 0-2.16-1.032-2.16-2.394l1.751-1.888c1.499-.098 2.53.992 2.53 2.16q0 .273-.077.545H5.47c.194.331.545.545.973.545H8V14.1zm-.973-2.647h1.927a1.07 1.07 0 0 0-.954-.565c-.428 0-.779.214-.973.565M1.07 10.265c.176-.155.604-.33 1.032-.33 1.168 0 2.122.953 2.122 2.121a2.127 2.127 0 0 1-2.122 2.122C.954 14.178 0 13.224 0 12.056V9h1.07zm2.122 1.791c0-.603-.486-1.09-1.09-1.09-.603 0-1.09.487-1.09 1.09s.487 1.09 1.09 1.09 1.09-.487 1.09-1.09M24.001 9v3.679l-1.751 1.48c-1.577 0-2.473-.935-2.473-2.103s.954-2.122 2.122-2.122c.448 0 .857.175 1.051.312V9zm-1.012 3.056c0-.603-.486-1.09-1.09-1.09-.603 0-1.09.487-1.09 1.09s.487 1.09 1.09 1.09 1.09-.487 1.09-1.09M10.2 15.034H9.148v-3.056c0-1.168.935-2.102 2.103-2.102a2.11 2.11 0 0 1 2.122 2.102A2.127 2.127 0 0 1 11.25 14.1c-.428 0-.857-.175-1.051-.33zm2.14-3.036c0-.604-.486-1.09-1.09-1.09-.603 0-1.09.486-1.09 1.09 0 .603.487 1.09 1.09 1.09s1.09-.487 1.09-1.09M16.643 13.088l-1.052 1.05a2.135 2.135 0 0 1-2.14-2.14c0-1.168.953-2.142 2.14-2.142s2.142.974 2.142 2.142V14.1h-1.09zm.058-1.071c0-.603-.506-1.11-1.11-1.11-.603 0-1.11.507-1.11 1.11s.507 1.11 1.11 1.11 1.11-.507 1.11-1.11" clip-rule="evenodd"/><path d="M18.24 10.908h1.05V14.1h-1.05zM18.24 9h1.05v1.051h-1.05z"/></svg>