<svg xmlns="http://www.w3.org/2000/svg" viewBox="0 0 24 24" fill="currentColor"><path d="M6.987 18.734v-.848a.503.503 0 0 0-.531-.537.52.52 0 0 0-.475.24.5.5 0 0 0-.445-.24.45.45 0 0 0-.396.2v-.166h-.294v1.35h.297v-.748a.317.317 0 0 1 .33-.359c.194 0 .293.127.293.356v.752h.297v-.749a.318.318 0 0 1 .33-.359c.201 0 .297.127.297.356v.752zm4.389-1.35h-.48v-.41h-.297v.41h-.274v.268h.274v.616c0 .313.121.5.469.5.13 0 .257-.036.367-.105l-.085-.251a.54.54 0 0 1-.26.076c-.14 0-.195-.09-.195-.226v-.61h.48zm2.506-.035a.4.4 0 0 0-.356.198v-.164h-.29v1.35h.293v-.756c0-.224.096-.348.283-.348a.5.5 0 0 1 .184.034l.09-.283a.6.6 0 0 0-.21-.037zm-3.79.142a1 1 0 0 0-.55-.142c-.342 0-.565.164-.565.433 0 .22.163.356.466.398l.141.02c.161.022.238.065.238.141 0 .105-.108.164-.309.164a.72.72 0 0 1-.449-.141l-.141.229c.171.12.376.18.585.175.39 0 .616-.184.616-.441s-.178-.362-.472-.404l-.141-.02c-.128-.017-.23-.042-.23-.133 0-.09.097-.158.258-.158a.9.9 0 0 1 .424.116zm7.873-.142a.4.4 0 0 0-.357.198v-.164h-.29v1.35h.293v-.756c0-.224.096-.348.283-.348a.5.5 0 0 1 .184.034l.09-.283a.6.6 0 0 0-.21-.037zm-3.786.707a.68.68 0 0 0 .72.706.7.7 0 0 0 .487-.16l-.141-.238a.6.6 0 0 1-.354.121.434.434 0 0 1 0-.864.6.6 0 0 1 .354.121l.14-.237a.7.7 0 0 0-.485-.162.68.68 0 0 0-.72.707zm2.751 0v-.676h-.294v.164a.51.51 0 0 0-.424-.198.707.707 0 0 0 0 1.413.51.51 0 0 0 .424-.198v.164h.294zm-1.093 0a.408.408 0 1 1 .814.047.408.408 0 0 1-.814-.047m-3.546-.707a.706.706 0 1 0 .02 1.413.82.82 0 0 0 .554-.19l-.141-.217a.64.64 0 0 1-.393.142.376.376 0 0 1-.404-.331h1.003v-.113c0-.424-.263-.707-.641-.707zm0 .263a.333.333 0 0 1 .342.328h-.706a.35.35 0 0 1 .359-.328zm7.372.447V16.84h-.294v.707a.51.51 0 0 0-.424-.198.706.706 0 1 0 0 1.413.51.51 0 0 0 .424-.198v.164h.294zm-1.094 0a.409.409 0 1 1 .817.048.409.409 0 0 1-.817-.049m-9.923 0v-.676h-.294v.164a.51.51 0 0 0-.424-.198.706.706 0 1 0 0 1.413.51.51 0 0 0 .424-.198v.164h.294zm-1.094 0a.408.408 0 1 1 .41.432.406.406 0 0 1-.413-.433zm4.224-2.835q.06.052.123.102a5.087 5.087 0 1 1 0-8.478 5.473 5.473 0 0 0-.123 8.37zm3.592-9.214a5.05 5.05 0 0 0-2.817.848q.063.048.123.101a5.477 5.477 0 0 1 0 8.27q-.06.051-.123.101a5.087 5.087 0 1 0 2.816-9.326zm-3.144 1.082q-.098.077-.193.16a5.087 5.087 0 0 0 .193 7.835 5.088 5.088 0 0 0 0-7.995"/></svg>