<svg xmlns="http://www.w3.org/2000/svg" viewBox="0 0 24 24" fill="none"><path fill="#878B8F" d="M20 4H4v16h16z"/><path fill="#373C42" d="M20 12H4v8h16zM10.374 6.237 8.867 9.829h-.981l-.742-2.867c-.045-.176-.081-.242-.22-.316q-.44-.21-.917-.305l.022-.104H7.61a.434.434 0 0 1 .43.366l.39 2.081.97-2.445zm3.85 2.42c0-.949-1.311-1.001-1.302-1.425 0-.128.125-.266.394-.3.314-.03.631.026.916.161l.162-.762a2.5 2.5 0 0 0-.87-.161c-.92 0-1.565.485-1.57 1.187-.006.518.462.808.813.978.352.17.485.289.485.446 0 .243-.288.348-.555.352a1.94 1.94 0 0 1-.957-.226l-.169.788c.33.128.68.192 1.034.191.977 0 1.616-.485 1.616-1.229m2.424 1.172h.865l-.752-3.592h-.792a.42.42 0 0 0-.396.263l-1.395 3.33h.975l.194-.537h1.193zm-1.032-1.272.488-1.35.282 1.35zm-3.91-2.32-.77 3.592h-.93l.77-3.592z"/><path fill="#878B8F" d="M7.342 15.533a.5.5 0 0 1 .08-.291.5.5 0 0 1 .228-.18.8.8 0 0 1 .323-.06q.165-.005.323.039a.8.8 0 0 1 .185.08l.021.3h-.007a.6.6 0 0 0-.146-.088 1 1 0 0 0-.185-.06 1 1 0 0 0-.193-.023.5.5 0 0 0-.243.049.18.18 0 0 0-.088.173.22.22 0 0 0 .045.146q.054.061.131.086.09.033.22.069c.088.023.162.045.232.068q.102.03.19.09a.4.4 0 0 1 .128.148.5.5 0 0 1 .046.235.51.51 0 0 1-.18.423.78.78 0 0 1-.504.147 1.2 1.2 0 0 1-.323-.044.8.8 0 0 1-.268-.118l-.018-.303h.006q.129.106.286.157.164.057.337.058.36 0 .36-.248a.24.24 0 0 0-.04-.144.3.3 0 0 0-.132-.09 2 2 0 0 0-.236-.076 3 3 0 0 1-.217-.067.7.7 0 0 1-.183-.093.4.4 0 0 1-.127-.152.5.5 0 0 1-.05-.231M8.87 16.846v-1.812h1.169v.263H9.19v.485h.67v.256h-.67v.55h.849v.258zM10.523 15.94a.8.8 0 0 0 .075.358.55.55 0 0 0 .216.236c.103.057.22.085.337.08a.8.8 0 0 0 .337-.06.8.8 0 0 0 .234-.161h.006l-.033.316a1 1 0 0 1-.248.119q-.162.05-.334.046a1 1 0 0 1-.384-.072.85.85 0 0 1-.475-.5 1.1 1.1 0 0 1 0-.735.86.86 0 0 1 .473-.499q.183-.076.382-.072.166-.005.329.04.128.034.236.112l.033.324H11.7a.8.8 0 0 0-.236-.156.8.8 0 0 0-.317-.059.65.65 0 0 0-.337.081.54.54 0 0 0-.214.236.8.8 0 0 0-.073.366M12.738 16.608a.5.5 0 0 0 .357-.106q.112-.105.112-.361v-1.107h.267v1.124q0 .381-.192.551t-.558.171a.86.86 0 0 1-.566-.17q-.202-.168-.202-.552v-1.124h.32v1.1q0 .255.107.365.108.11.355.109M13.786 16.846v-1.812h.765a.63.63 0 0 1 .31.072.5.5 0 0 1 .199.197c.046.086.07.184.068.282a.53.53 0 0 1-.102.324.5.5 0 0 1-.28.183l.466.753h-.367l-.421-.71H14.1v.711zm.68-1.559h-.36v.61h.36c.09.009.18-.018.251-.075a.38.38 0 0 0 0-.46.35.35 0 0 0-.251-.075M15.45 16.846v-1.812h1.169v.263h-.849v.485h.674v.256h-.67v.55h.849v.258z"/></svg>