<svg xmlns="http://www.w3.org/2000/svg" viewBox="0 0 24 24" fill="currentColor"><path d="M11.131 1.92c-.803 0-1.453.645-1.453 1.678-1.917.607-4.939 3.07-4.939 7.322l.093 2.12c0 1.568-.629 2.009-1.148 3.133-.256.38-.518 2.307 2.477 2.307H17.72c2.992-.001 2.73-1.927 2.474-2.308-.519-1.123-1.148-1.564-1.148-3.132l.093-2.12c0-4.252-3.022-6.715-4.938-7.322 0-1.033-.651-1.678-1.454-1.678zM13.38 19.68c.662 0 1.2.56 1.2 1.214 0 .655-.538 1.186-1.2 1.186H10.5c-.664 0-1.2-.53-1.2-1.186s.536-1.214 1.2-1.214z"/></svg>