<svg xmlns="http://www.w3.org/2000/svg" viewBox="0 0 24 24" fill="currentColor"><path d="M6.68723 21C6.22321 21 5.826 20.8366 5.4956 20.5098C5.1652 20.1831 5 19.7902 5 19.3313V10.6687C5 10.2098 5.1652 9.81692 5.4956 9.49015C5.826 9.16338 6.22321 9 6.68723 9H7.8V7.15385C7.8 6.00123 8.20864 5.02077 9.02593 4.21246C9.84322 3.40415 10.8346 3 12 3C13.1654 3 14.1568 3.40415 14.9741 4.21246C15.7914 5.02077 16.2 6.00123 16.2 7.15385V9H17.3128C17.7768 9 18.174 9.16338 18.5044 9.49015C18.8348 9.81692 19 10.2098 19 10.6687V19.3313C19 19.7902 18.8348 20.1831 18.5044 20.5098C18.174 20.8366 17.7768 21 17.3128 21H6.68723ZM12 16.6154C12.4534 16.6154 12.8391 16.4583 13.1569 16.1442C13.4745 15.8298 13.6333 15.4485 13.6333 15C13.6333 14.5515 13.4745 14.1702 13.1569 13.8558C12.8391 13.5417 12.4534 13.3846 12 13.3846C11.5466 13.3846 11.1609 13.5417 10.8431 13.8558C10.5255 14.1702 10.3667 14.5515 10.3667 15C10.3667 15.4485 10.5255 15.8298 10.8431 16.1442C11.1609 16.4583 11.5466 16.6154 12 16.6154ZM9.2 9H14.8V7.15385C14.8 6.38462 14.5278 5.73077 13.9833 5.19231C13.4389 4.65385 12.7778 4.38462 12 4.38462C11.2222 4.38462 10.5611 4.65385 10.0167 5.19231C9.47222 5.73077 9.2 6.38462 9.2 7.15385V9Z" /></svg>