<svg xmlns="http://www.w3.org/2000/svg" viewBox="0 0 16 17" fill="none">
<path d="M8.00335 7.49699C9.67218 7.49699 11.0889 7.23849 12.2534 6.72149C13.4178 6.20449 14 5.58019 14 4.84859C14 4.11688 13.4178 3.49252 12.2534 2.97552C11.0889 2.45851 9.67218 2.20001 8.00335 2.20001C6.33464 2.20001 4.9169 2.45851 3.75014 2.97552C2.58338 3.49252 2 4.11688 2 4.84859C2 5.58019 2.58338 6.20449 3.75014 6.72149C4.9169 7.23849 6.33464 7.49699 8.00335 7.49699ZM7.99665 8.92316C8.524 8.92316 9.11644 8.87543 9.77395 8.77996C10.4315 8.68438 11.0581 8.53606 11.6537 8.335C12.2493 8.13406 12.7666 7.87786 13.2056 7.56638C13.6448 7.25491 13.9096 6.88317 14 6.45116V8.38003C13.9096 8.81192 13.6448 9.18361 13.2056 9.49508C12.7666 9.80655 12.2493 10.0628 11.6537 10.2639C11.0581 10.4648 10.4315 10.6131 9.77395 10.7087C9.11644 10.8041 8.524 10.8519 7.99665 10.8519C7.4693 10.8519 6.87686 10.8041 6.21935 10.7087C5.56183 10.6131 4.93642 10.4648 4.3431 10.2639C3.74979 10.0628 3.23355 9.80655 2.79438 9.49508C2.35521 9.18361 2.09042 8.81192 2 8.38003V6.45116C2.09042 6.88317 2.35521 7.25491 2.79438 7.56638C3.23355 7.87786 3.74979 8.13406 4.3431 8.335C4.93642 8.53606 5.56183 8.68438 6.21935 8.77996C6.87686 8.87543 7.4693 8.92316 7.99665 8.92316ZM7.99665 12.278C8.524 12.278 9.11644 12.2303 9.77395 12.1348C10.4315 12.0392 11.0581 11.8909 11.6537 11.6899C12.2493 11.4889 12.7666 11.2327 13.2056 10.9212C13.6448 10.6097 13.9096 10.2379 14 9.80602V11.728C13.9096 12.1599 13.6448 12.5316 13.2056 12.8431C12.7666 13.1545 12.2493 13.4108 11.6537 13.6119C11.0581 13.8129 10.4315 13.9612 9.77395 14.0566C9.11644 14.1522 8.524 14.2 7.99665 14.2C7.4693 14.2 6.87686 14.1522 6.21935 14.0566C5.56183 13.9612 4.93642 13.8129 4.3431 13.6119C3.74979 13.4108 3.23355 13.1545 2.79438 12.8431C2.35521 12.5316 2.09042 12.1599 2 11.728V9.80602C2.09042 10.2379 2.35521 10.6097 2.79438 10.9212C3.23355 11.2327 3.74979 11.4889 4.3431 11.6899C4.93642 11.8909 5.56183 12.0392 6.21935 12.1348C6.87686 12.2303 7.4693 12.278 7.99665 12.278Z" fill="currentColor" />
</svg>