<svg xmlns="http://www.w3.org/2000/svg" viewBox="0 0 24 24" fill="currentColor"><path d="M14.075 5.28a.72.72 0 0 0-.72-.72H4.292A2.376 2.376 0 0 0 1.92 6.94v2.084c0 .493.412.877.869 1.058a2.38 2.38 0 0 1 1.503 2.216 2.38 2.38 0 0 1-1.503 2.216c-.457.18-.87.564-.87 1.057v1.488a2.376 2.376 0 0 0 2.373 2.381h9.063a.72.72 0 0 0 .72-.72zM15.854 18.72c0 .398.322.72.72.72h3.134a2.376 2.376 0 0 0 2.372-2.38V15.57c0-.493-.412-.877-.869-1.057a2.38 2.38 0 0 1-1.503-2.216c0-1.007.623-1.868 1.503-2.216.457-.181.869-.565.869-1.058V6.941a2.376 2.376 0 0 0-2.372-2.38h-3.134a.72.72 0 0 0-.72.72z"/></svg>