<svg xmlns="http://www.w3.org/2000/svg" viewBox="0 0 24 24" fill="currentColor"><path fill-rule="evenodd" d="M4.292 19.44a2.376 2.376 0 0 1-2.372-2.38V15.57c0-.493.412-.877.869-1.057a2.38 2.38 0 0 0 1.503-2.216 2.38 2.38 0 0 0-1.503-2.216c-.457-.181-.87-.565-.87-1.058V6.941a2.376 2.376 0 0 1 2.373-2.38h15.416a2.376 2.376 0 0 1 2.372 2.38v2.083c0 .493-.412.877-.869 1.058a2.38 2.38 0 0 0-1.503 2.216c0 1.007.623 1.868 1.503 2.216.457.18.869.564.869 1.057v1.488a2.376 2.376 0 0 1-2.372 2.381zm0-1.92a.456.456 0 0 1-.452-.46v-.915a4.3 4.3 0 0 0 2.372-3.847A4.3 4.3 0 0 0 3.84 8.45V6.94c0-.262.21-.46.452-.46h9.628v11.04zm11.548 0h3.868c.243 0 .452-.2.452-.46v-.915a4.3 4.3 0 0 1-2.372-3.847c0-1.684.965-3.141 2.372-3.847V6.94c0-.262-.21-.46-.452-.46H15.84z" clip-rule="evenodd"/></svg>