<svg xmlns="http://www.w3.org/2000/svg" viewBox="0 0 24 24" fill="currentColor"><path fill-rule="evenodd" d="M9.606 3.69c.951-2.029 3.837-2.029 4.788 0l1.469 3.132a.72.72 0 0 0 .562.411l3.563.464c2.247.293 3.11 3.09 1.417 4.597l-2.569 2.288a.72.72 0 0 0-.228.682l.675 3.401c.44 2.214-1.916 3.925-3.885 2.823l-3.044-1.704a.72.72 0 0 0-.708 0l-3.044 1.704c-1.97 1.102-4.325-.61-3.885-2.823l.676-3.401a.72.72 0 0 0-.23-.682l-2.568-2.288c-1.692-1.506-.83-4.304 1.417-4.597l3.563-.464a.72.72 0 0 0 .562-.41zm3.05.815a.724.724 0 0 0-1.312 0L9.875 7.637a2.64 2.64 0 0 1-2.052 1.5L4.26 9.6a.724.724 0 0 0-.388 1.26l2.569 2.287c.7.623 1.017 1.57.835 2.49L6.6 19.04a.724.724 0 0 0 1.064.773l3.045-1.705c.802-.449 1.78-.449 2.583 0l3.044 1.705a.724.724 0 0 0 1.064-.773l-.676-3.402a2.65 2.65 0 0 1 .835-2.49l2.57-2.288a.724.724 0 0 0-.389-1.259l-3.563-.464a2.64 2.64 0 0 1-2.052-1.5z" clip-rule="evenodd"/></svg>