<svg xmlns="http://www.w3.org/2000/svg" viewBox="0 0 170 24" fill="none"><g><path fill="#197DEB" d="M66.521 19.2h-4.927V24h4.927z"/><path fill="#fff" d="M87.464 0h-12.32c-2.04 0-3.695 1.613-3.695 3.6V24h4.928v-9.6h9.855V24h4.927V3.6c0-1.987-1.655-3.6-3.695-3.6m-1.232 9.6h-9.855V4.8h9.855z"/><path fill="#197DEB" d="M101.014 14.4h-4.927v4.8h4.927z"/><path fill="#fff" d="M115.797 4.8h9.856V0h-16.015c-2.04 0-3.696 1.613-3.696 3.6v7.2c0 1.987 1.656 3.6 3.696 3.6h11.087v4.8h-14.783V24h16.015c2.04 0 3.696-1.613 3.696-3.6v-7.2c0-1.987-1.656-3.6-3.696-3.6H110.87V4.8z"/><path fill="#197DEB" d="M135.508 9.6h-4.928v4.8h4.928z"/><path fill="#fff" d="M150.29 4.8h9.855V0H144.13c-2.04 0-3.695 1.613-3.695 3.6v16.8c0 1.987 1.655 3.6 3.695 3.6h16.015v-4.8h-14.783v-4.8h14.783V9.6h-14.783V4.8z"/><path fill="#197DEB" d="M170 4.8h-4.928v4.8H170z"/><path fill="#fff" d="M52.97 0H36.957v24H52.97c2.04 0 3.696-1.613 3.696-3.6V3.6c0-1.987-1.655-3.6-3.695-3.6M51.74 19.2h-9.855v-4.8h9.855zm0-9.6h-9.855V4.8h9.855z"/><path fill="#197DEB" d="M19.71 0H0v24h24.638V0zM4.928 19.2v-4.8h4.927v4.8zM19.71 9.6v9.6h-4.927V9.6H4.928V4.8H19.71z"/></g><defs><clipPath id="a"><path fill="#fff" d="M0 0h170v24H0z"/></clipPath></defs></svg>