<svg xmlns="http://www.w3.org/2000/svg" viewBox="0 0 24 24"><path fill="url(#telegramGradient)" d="M12 22.5c5.799 0 10.5-4.701 10.5-10.5S17.799 1.5 12 1.5 1.5 6.201 1.5 12 6.201 22.5 12 22.5"/><path fill="#fff" fill-rule="evenodd" d="M6.253 11.89a500 500 0 0 1 6.123-2.638c2.916-1.213 3.522-1.424 3.917-1.43.087-.002.28.02.407.121a.44.44 0 0 1 .15.285c.013.081.03.267.017.413-.158 1.66-.842 5.69-1.19 7.549-.147.787-.437 1.05-.717 1.076-.61.057-1.073-.403-1.664-.79-.924-.605-1.446-.983-2.343-1.574-1.037-.683-.365-1.058.226-1.672.155-.16 2.841-2.604 2.893-2.826.007-.028.013-.131-.049-.186-.061-.054-.152-.036-.217-.02q-.14.03-4.429 2.927-.629.431-1.139.42c-.375-.008-1.096-.212-1.632-.386-.657-.214-1.18-.327-1.134-.69q.035-.283.78-.58" clip-rule="evenodd"/><defs><linearGradient id="telegramGradient" x1="1051.5" x2="1051.5" y1="1.5" y2="2085.93" gradientUnits="userSpaceOnUse"><stop offset="0%" stop-color="#2AABEE"/><stop offset="100%" stop-color="#229ED9"/></linearGradient></defs></svg>