<svg xmlns="http://www.w3.org/2000/svg" viewBox="0 0 24 24" fill="currentColor"><path fill-rule="evenodd" d="M2.976 2.976C1.5 4.452 1.5 6.828 1.5 11.58v.84c0 4.752 0 7.128 1.476 8.604S6.828 22.5 11.58 22.5h.84c4.752 0 7.128 0 8.604-1.476S22.5 17.172 22.5 12.42v-.84c0-4.752 0-7.128-1.476-8.604S17.172 1.5 12.42 1.5h-.84c-4.752 0-7.128 0-8.604 1.476m2.068 4.912c.114 5.46 2.844 8.741 7.63 8.741h.272v-3.124c1.758.175 3.088 1.461 3.622 3.124h2.485c-.682-2.485-2.476-3.859-3.596-4.384 1.12-.647 2.695-2.222 3.071-4.357H16.27c-.49 1.732-1.942 3.307-3.324 3.456V7.888h-2.258v6.055c-1.4-.35-3.167-2.048-3.246-6.055z" clip-rule="evenodd"/></svg>