<svg xmlns="http://www.w3.org/2000/svg" fill="currentColor" viewBox="0 0 24 24"><path d="M7.492 3.24a4.8 4.8 0 0 0-4.8 4.8v7.92a4.8 4.8 0 0 0 4.8 4.8h6a.96.96 0 1 0 0-1.92h-6a2.88 2.88 0 0 1-2.88-2.88V8.04a2.88 2.88 0 0 1 2.88-2.88h6a.96.96 0 1 0 0-1.92z"/><path d="M9.237 11.883c0 .53.43.96.96.96l9.6-.002-2.83 2.832a.96.96 0 0 0 1.357 1.358l4.457-4.458a1 1 0 0 0 .103-.122.96.96 0 0 0 .175-.721.96.96 0 0 0-.272-.55l-4.463-4.464a.96.96 0 1 0-1.358 1.357l2.849 2.85h-9.619a.96.96 0 0 0-.959.96"/></svg>