<svg xmlns="http://www.w3.org/2000/svg" viewBox="0 0 24 24" fill="currentColor"><path fill-rule="evenodd" d="M11.656 19.216c.032.023.021.076-.019.08v.002c-.727.067-1.092-.057-1.493-.299-1.168-.704-2.292-.68-3.448.026a2.67 2.67 0 0 1-1.425.42c-.063.001-.094-.082-.046-.124 1.476-1.306 1.732-2.255 1.9-5.12a.5.5 0 0 0-.093.077c-.11.109-.255.252-.706.15.99-.674.908-4.062.834-7.162-.025-1.062-.05-2.09-.03-2.964.02-.421-.201-.483-.22-.487-1.97-.417-4.287 1.769-4.019 3.784.152 1.135.912 1.721 1.956 1.51.758-.152 1.262-.65.43-1.697 1.034.47.946 1.385.444 1.907-.81.841-2.852.916-3.716.286-.98-.715-1.288-2.128-.725-3.397.45-1.01 1.207-1.73 2.118-2.29 1.25-.767 2.62-1.197 4.036-1.429l.28-.045c2.272-.373 4.548-.747 6.845-.063 2.434.725 3.829 2.402 3.775 4.603-.037 1.48-.67 2.63-1.823 3.47-.319.232-.724.464-1.114.687-.248.143-.49.281-.699.413.15 1.681 2.815 4.875 4.532 5.289-.267.236-.437.263-.796.26 2.48 2.04 3.263 2.227 5.502 2.638.087.017.084.148-.003.16-3.346.448-6.509-.656-8.623-2.71-1.425-1.384-2.668-2.928-3.873-4.483a.74.74 0 0 0-.58-.293c-.915-.001-1.094.273-1.215 1.293-.251 2.133-.255 3.957 2.014 5.508M9.65 3.688v7.304c2.035.81 4.484.05 5.586-1.696.682-1.08.735-2.225.14-3.358-.943-1.795-3.75-2.902-5.726-2.25" clip-rule="evenodd"/></svg>