<svg xmlns="http://www.w3.org/2000/svg" viewBox="0 0 24 24" fill="currentColor"><path d="M21.8 12.227q-.002-1.063-.182-2.045H12.2v3.868h5.382a4.6 4.6 0 0 1-1.995 3.018v2.51h3.231c1.891-1.742 2.982-4.305 2.982-7.35"/><path d="M12.2 22c2.7 0 4.964-.896 6.618-2.423l-3.232-2.509c-.895.6-2.04.955-3.386.955-2.605 0-4.81-1.76-5.595-4.123H3.264v2.59A10 10 0 0 0 12.2 22"/><path d="M6.605 13.9c-.2-.6-.314-1.241-.314-1.9 0-.66.114-1.3.314-1.9V7.509H3.264a10 10 0 0 0-1.064 4.49c0 1.615.387 3.142 1.064 4.492z"/><path d="M12.2 5.977c1.468 0 2.786.505 3.823 1.496l2.868-2.868C17.159 2.99 14.896 2 12.2 2 8.29 2 4.91 4.24 3.264 7.51l3.34 2.59c.787-2.364 2.991-4.123 5.596-4.123"/></svg>