<svg xmlns="http://www.w3.org/2000/svg" viewBox="0 0 24 24" fill="currentColor"><path d="M7.444 1.077c-1.17.055-1.97.242-2.668.517A5.4 5.4 0 0 0 2.83 2.866a5.4 5.4 0 0 0-1.265 1.95c-.271.7-.455 1.5-.506 2.67C1.007 8.658.996 9.034 1 12.021c.006 2.987.02 3.362.076 4.535.056 1.17.242 1.97.517 2.668a5.4 5.4 0 0 0 1.272 1.946c.612.61 1.225.985 1.951 1.265.7.27 1.5.455 2.67.506 1.172.052 1.548.064 4.535.058s3.362-.02 4.535-.075 1.968-.243 2.668-.516a5.4 5.4 0 0 0 1.945-1.273 5.4 5.4 0 0 0 1.265-1.95c.271-.7.455-1.5.506-2.67.051-1.174.063-1.55.058-4.536-.006-2.987-.02-3.361-.075-4.534-.056-1.173-.242-1.97-.516-2.67a5.4 5.4 0 0 0-1.273-1.945 5.4 5.4 0 0 0-1.95-1.265c-.7-.27-1.5-.455-2.67-.506-1.172-.05-1.549-.063-4.536-.058-2.987.006-3.361.019-4.535.076m.129 19.885c-1.073-.046-1.655-.224-2.043-.373a3.4 3.4 0 0 1-1.267-.82 3.4 3.4 0 0 1-.825-1.264c-.15-.388-.332-.97-.382-2.042-.055-1.16-.066-1.508-.073-4.445-.006-2.936.005-3.284.056-4.444.046-1.071.225-1.654.374-2.042.198-.515.436-.88.82-1.267s.75-.624 1.264-.825c.388-.151.97-.331 2.041-.382 1.16-.055 1.508-.066 4.444-.073s3.285.005 4.446.056c1.071.047 1.654.224 2.042.374.514.198.88.436 1.267.82.386.385.624.75.825 1.264.151.387.331.968.382 2.041.055 1.16.068 1.508.073 4.444s-.005 3.285-.056 4.444c-.047 1.073-.224 1.655-.374 2.044-.198.514-.436.88-.82 1.266-.385.387-.75.625-1.264.825-.387.151-.97.332-2.04.383-1.16.054-1.509.066-4.446.072s-3.284-.005-4.444-.056M16.54 6.121a1.32 1.32 0 1 0 2.642-.005 1.32 1.32 0 0 0-2.642.005M6.352 12.01a5.648 5.648 0 1 0 11.297-.022 5.648 5.648 0 0 0-11.297.022m1.981-.004a3.667 3.667 0 1 1 7.334-.014 3.667 3.667 0 0 1-7.334.014"/></svg>