<svg xmlns="http://www.w3.org/2000/svg" viewBox="0 0 24 24"><path fill="#F70" d="M12.225 11.9c1.508 0 2.87-.618 3.852-1.599a5.437 5.437 0 0 0 0-7.702 5.437 5.437 0 0 0-7.703 0 5.437 5.437 0 0 0 0 7.702 5.47 5.47 0 0 0 3.851 1.6m-1.744-7.212a2.46 2.46 0 0 1 1.744-.727c.69 0 1.309.273 1.745.727a2.46 2.46 0 0 1 .726 1.744c0 .69-.272 1.308-.726 1.744a2.46 2.46 0 0 1-1.745.727c-.69 0-1.308-.273-1.744-.727a2.46 2.46 0 0 1-.726-1.744c0-.672.29-1.29.726-1.744"/><path fill="#F70" d="m19.565 14.098-1.598-2.18a.25.25 0 0 0-.382-.036c-1.508 1.29-3.36 2.125-5.359 2.125-1.998 0-3.851-.835-5.36-2.125a.28.28 0 0 0-.38.036l-1.6 2.18a.275.275 0 0 0 .037.345 11.3 11.3 0 0 0 4.542 2.217l-3.38 5.959c-.09.163.037.381.219.381H9.61c.109 0 .2-.055.236-.163l2.362-5.269 2.362 5.268c.036.091.127.164.236.164h3.306c.2 0 .309-.2.218-.381l-3.379-5.96c1.635-.38 3.197-1.107 4.542-2.216.145-.09.163-.236.072-.345"/></svg>