<svg xmlns="http://www.w3.org/2000/svg" viewBox="0 0 24 24" fill="currentColor"><path d="M1.453 15.209C2.828 19.717 7.025 23 11.988 23 18.07 23 23 18.075 23 12S18.07 1 11.988 1C6.153 1 1.378 5.535 1 11.27l.005.007v-.001l5.917 2.436q.243-.165.515-.275c.416-.171.854-.248 1.29-.228l2.695-3.91-.002-.054h-.003A4.19 4.19 0 0 1 15.6 5.06a4.19 4.19 0 0 1 4.183 4.185 4.19 4.19 0 0 1-4.183 4.187l-.095-.002-3.852 2.752a3.05 3.05 0 0 1-1.89 2.904 3.06 3.06 0 0 1-2.338-.004 3.04 3.04 0 0 1-1.804-2.155z"/><path d="M7.693 18.438c1.2.5 2.58-.067 3.08-1.27h-.002c.241-.58.243-1.221.003-1.803a2.33 2.33 0 0 0-1.272-1.279 2.34 2.34 0 0 0-1.737-.026l1.41.582a1.737 1.737 0 0 1 .558 2.831 1.73 1.73 0 0 1-1.891.373l-1.362-.564c.249.521.68.933 1.213 1.156"/><path fill-rule="evenodd" d="M13.634 11.215c.522.523 1.23.817 1.97.82a2.796 2.796 0 0 0 2.787-2.79 2.79 2.79 0 0 0-2.787-2.788 2.796 2.796 0 0 0-2.787 2.789c0 .738.294 1.446.817 1.969m.493-3.454a2.093 2.093 0 0 0 0 2.96c.393.393.925.614 1.48.614a2.096 2.096 0 0 0 2.094-2.094c0-1.157-.939-2.095-2.093-2.095-.556 0-1.088.222-1.48.615" clip-rule="evenodd"/></svg>