<svg xmlns="http://www.w3.org/2000/svg" viewBox="0 0 24 24" fill="currentColor"><path fill-rule="evenodd" d="M22.5 12c0 5.799-4.701 10.5-10.5 10.5S1.5 17.799 1.5 12 6.201 1.5 12 1.5 22.5 6.201 22.5 12M12.377 9.252a500 500 0 0 0-6.124 2.637q-.745.297-.781.58c-.04.32.36.446.905.617l.23.073c.536.174 1.257.378 1.632.386q.51.011 1.138-.42 4.29-2.896 4.43-2.928c.065-.014.155-.033.217.021.061.055.055.158.049.186-.04.17-1.61 1.63-2.424 2.385-.253.236-.433.403-.47.441a9 9 0 0 1-.246.244c-.498.48-.872.84.02 1.428.43.283.772.517 1.115.75.373.254.746.508 1.229.824.122.08.24.165.354.246.435.31.826.589 1.309.544.28-.025.57-.29.717-1.076.348-1.86 1.032-5.889 1.19-7.55a2 2 0 0 0-.017-.412.44.44 0 0 0-.15-.285c-.126-.102-.32-.123-.407-.122-.395.007-1 .218-3.916 1.43" clip-rule="evenodd"/></svg>