<svg viewBox="0 0 24 24" fill="currentColor" xmlns="http://www.w3.org/2000/svg">
<g clip-path="url(#clip0_4039_12196)">
<path d="M12 0C5.37273 0 0 5.37273 0 12C0 18.6273 5.37273 24 12 24C18.6273 24 24 18.6273 24 12C24 5.37273 18.6273 0 12 0ZM19.284 10.2681C17.8439 10.2696 16.4399 9.81809 15.2706 8.97743V14.8396C15.2761 15.9278 14.9487 16.9917 14.3324 17.8886C13.7161 18.7855 12.8403 19.4725 11.8224 19.8575C10.8046 20.2425 9.69331 20.3071 8.6377 20.0426C7.58209 19.7781 6.63259 19.1971 5.91653 18.3776C5.20047 17.5582 4.75208 16.5394 4.6315 15.4578C4.51092 14.3763 4.72391 13.2837 5.2419 12.3267C5.75989 11.3696 6.55813 10.5938 7.52956 10.1033C8.50099 9.61282 9.59917 9.43106 10.6768 9.58242V12.5273C10.4453 12.4538 10.204 12.4161 9.96107 12.4154C9.48525 12.4152 9.0199 12.5551 8.62299 12.8175C8.22608 13.0799 7.91515 13.4533 7.72892 13.8912C7.5427 14.329 7.48942 14.812 7.57571 15.2799C7.662 15.7479 7.88406 16.1801 8.21422 16.5227C8.54439 16.8653 8.96806 17.1033 9.43247 17.2068C9.89688 17.3104 10.3815 17.2751 10.826 17.1052C11.2704 16.9353 11.6551 16.6384 11.932 16.2515C12.209 15.8646 12.366 15.4048 12.3835 14.9293L12.3883 3.37112H15.273C15.2737 4.03955 15.4412 4.69723 15.7603 5.28454C16.0795 5.87185 16.5402 6.3702 17.1006 6.73442C17.7502 7.15925 18.5097 7.38521 19.2858 7.38457L19.284 10.2681Z" />
</g>
<defs>
<clipPath id="clip0_4039_12196">
<rect width="24" height="24" />
</clipPath>
</defs>
</svg>
