<svg xmlns="http://www.w3.org/2000/svg" viewBox="0 0 24 24"><path fill="#fff" d="M8.378 7.467h8.16v8.16h-8.16z"/><path fill="red" fill-rule="evenodd" d="M10.076 14.756V9.244L15.087 12zm11.17-7.178c-.221-.79-.875-1.413-1.705-1.624-1.504-.384-7.536-.384-7.536-.384s-6.033 0-7.537.384c-.83.21-1.484.834-1.705 1.624C2.359 9.01 2.359 12 2.359 12s0 2.99.404 4.422c.221.79.875 1.413 1.705 1.624 1.504.384 7.537.384 7.537.384s6.032 0 7.536-.384c.83-.21 1.484-.834 1.706-1.624.403-1.433.403-4.422.403-4.422s0-2.99-.403-4.422" clip-rule="evenodd"/></svg>