<svg xmlns="http://www.w3.org/2000/svg" viewBox="0 0 24 24" fill="currentColor"><path d="M3.957 21a.93.93 0 0 1-.682-.275.93.93 0 0 1-.275-.682v-6.19q0-.338.228-.566a.77.77 0 0 1 .566-.228q.339 0 .566.228.228.227.228.566v4.453L18.306 4.588h-4.453a.77.77 0 0 1-.566-.228.77.77 0 0 1-.228-.566q0-.338.228-.566A.77.77 0 0 1 13.853 3h6.19q.406 0 .682.275.275.275.275.682v6.19a.77.77 0 0 1-.228.566.77.77 0 0 1-.566.228.77.77 0 0 1-.566-.228.77.77 0 0 1-.228-.566V5.694L5.694 19.412h4.453q.338 0 .566.228a.77.77 0 0 1 .228.566.77.77 0 0 1-.228.566.77.77 0 0 1-.566.228z"/></svg>