<svg xmlns="http://www.w3.org/2000/svg" viewBox="0 0 24 24" fill="currentColor"><path d="M15.207 18.737a.25.25 0 0 0 .186-.073.25.25 0 0 0 .073-.186v-7.223a.25.25 0 0 0-.073-.186.25.25 0 0 0-.187-.073H5.523a.25.25 0 0 0-.186.073.25.25 0 0 0-.073.186v7.223q0 .112.073.186.073.073.186.073zm1.522-4.47v-1.263h1.749a.25.25 0 0 0 .186-.073.25.25 0 0 0 .073-.186V5.522a.25.25 0 0 0-.073-.186.25.25 0 0 0-.186-.073H8.793a.25.25 0 0 0-.186.073.25.25 0 0 0-.073.186v4.21H7.271v-4.21q0-.638.442-1.08A1.47 1.47 0 0 1 8.793 4h9.685q.638 0 1.08.442T20 5.522v7.223q0 .638-.442 1.08a1.47 1.47 0 0 1-1.08.442zM5.522 20a1.47 1.47 0 0 1-1.08-.442A1.47 1.47 0 0 1 4 18.478v-7.223q0-.638.442-1.08a1.47 1.47 0 0 1 1.08-.442h9.75q.605 0 1.03.425.427.427.427 1.024v7.296q0 .638-.442 1.08a1.47 1.47 0 0 1-1.08.442z"/></svg>