<svg xmlns="http://www.w3.org/2000/svg" viewBox="0 0 56 56" fill="none"><g clip-path="url(#a)"><mask id="b" width="56" height="56" x="0" y="0" maskUnits="userSpaceOnUse" style="mask-type:luminance"><path fill="#fff" d="M53.375 0H2.625A2.625 2.625 0 0 0 0 2.625v50.75A2.625 2.625 0 0 0 2.625 56h50.75A2.625 2.625 0 0 0 56 53.375V2.625A2.625 2.625 0 0 0 53.375 0"/></mask><g mask="url(#b)"><path fill="#000" d="M56 0H0v56h56z"/></g><path fill="#fff" d="M34.095 18.245q-.471 0-.773.478a2.25 2.25 0 0 0-.3 1.213q0 .558.2.851a.64.64 0 0 0 .56.295c.278 0 .543-.154.784-.463l.241-1.977q-.339-.395-.712-.397M26.501 18.612h-1.346l-.357 1.652h1.346zM19.85 21.689c.122-.117.218-.26.28-.417.112-.32.112-.668 0-.988a1.2 1.2 0 0 0-.28-.413 1.4 1.4 0 0 0-.983-.336h-1.395v2.494h1.399q.617.003.978-.34"/><path fill="#fff" d="m13.078 22.624-2.519 3.938 5.594.517L9.96 40.32l13.163-12.049 1.707 3.33 3.09-4.102 4.999 3.906.593-3.472 9.057 2.544-.457-4.982 7.874-.195-5.96-6.334 7.115-7.863-12.47 1.36 1.202-5.713-8.22 3.637-2.996-4.144-4.33 3.473-5.071-3.242-.604 3.686h-8.42l2.852 5.363-7.576 2.974zm26.27-6.892h1.495v2.23l-.174 2.724h-1.141l-.18-2.724zm-.084 6.256a.9.9 0 0 1 .191-.298.946.946 0 0 1 1.294 0 .94.94 0 0 1 0 1.295.9.9 0 0 1-.298.189 1.1 1.1 0 0 1-.698 0 .82.82 0 0 1-.49-.487 1.1 1.1 0 0 1 0-.7m-8.955-4.641a4 4 0 0 1 1.551-1.657 4.82 4.82 0 0 1 4.444-.09c.607.32 1.108.807 1.446 1.404.351.634.529 1.349.516 2.073a3.9 3.9 0 0 1-.274 1.509c-.155.404-.42.757-.762 1.021a1.85 1.85 0 0 1-1.132.362 1.7 1.7 0 0 1-.71-.148 1.4 1.4 0 0 1-.52-.399 1.85 1.85 0 0 1-1.304.547 1.47 1.47 0 0 1-1.196-.542q-.448-.542-.448-1.469c-.007-.454.08-.904.256-1.323a2.2 2.2 0 0 1 .726-.927c.307-.222.679-.34 1.058-.336a1.47 1.47 0 0 1 1.096.436l.126-.336h.836l-.343 2.83a2 2 0 0 0-.01.198q0 .59.484.59t.784-.552q.294-.551.294-1.457a3.36 3.36 0 0 0-.38-1.62 2.6 2.6 0 0 0-1.061-1.063 3.68 3.68 0 0 0-3.403.09c-.51.317-.917.776-1.171 1.32a4.5 4.5 0 0 0-.412 1.994q0 1.65.842 2.534t2.418.884a7.6 7.6 0 0 0 2.054-.316v.936a8 8 0 0 1-.956.216q-.545.09-1.096.089-1.335 0-2.302-.52a3.52 3.52 0 0 1-1.483-1.498q-.518-.981-.517-2.325a5.3 5.3 0 0 1 .55-2.456m-7.88 2.912h1.273l.359-1.652h-1.284l.224-1.027h1.28l.389-1.852h1.095l-.39 1.856h1.345l.388-1.851h1.094l-.386 1.851h1.272l-.224 1.027h-1.27l-.357 1.652h1.284l-.224 1.027h-1.28l-.39 1.85h-1.091l.388-1.85H24.58l-.388 1.848h-1.093l.39-1.85H22.21zm-6.256-4.53h4.85v1.12h-3.551v1.607h1.397c.489-.01.974.088 1.42.285.387.172.713.456.936.815a2.5 2.5 0 0 1 0 2.478c-.225.36-.55.647-.935.825-.445.202-.928.3-1.416.29h-2.688zM.875 42.875v10.499a1.753 1.753 0 0 0 1.75 1.75h50.75a1.753 1.753 0 0 0 1.75-1.75v-10.5z"/><path fill="#000" d="M6.707 51.537a1.46 1.46 0 0 1-1.266-.644q-.44-.645-.442-1.897c-.011-.469.06-.936.21-1.38.11-.337.314-.636.589-.86.257-.196.573-.3.896-.294.351-.013.695.11.958.343q.386.342.56 1.106l-.811.137a1.4 1.4 0 0 0-.28-.608.52.52 0 0 0-.401-.194q-.358 0-.61.406-.252.405-.245 1.344 0 .896.239 1.33c.159.29.366.427.608.427a.58.58 0 0 0 .448-.19c.143-.189.24-.41.28-.643l.82.133q-.183.784-.568 1.134c-.27.24-.624.366-.985.35m3.727-2.632 1.428 2.562h-.966l-1.127-2.114h-.182v2.114h-.84v-4.935h.84v2.009h.168l1.07-2.01h.897zm3.718.028c.243.077.455.232.601.441.155.216.236.476.231.742.004.246-.061.489-.188.7-.13.207-.317.373-.54.476-.26.122-.545.182-.832.175h-1.275v-4.935h1.179q.714 0 1.106.357a1.32 1.32 0 0 1 .21 1.624 1.06 1.06 0 0 1-.492.42m-1.16-1.61v1.253h.385a.577.577 0 0 0 .61-.616.63.63 0 0 0-.177-.462.6.6 0 0 0-.433-.175zm.44 3.353a.7.7 0 0 0 .505-.175.64.64 0 0 0 .19-.483.61.61 0 0 0-.424-.611.7.7 0 0 0-.27-.04h-.441v1.309zm4.69.791h-2.536v-4.935h2.485v.805h-1.646v1.246h1.45v.784h-1.45v1.295h1.695zm.602 0v-4.935h1.167c.294-.006.585.06.847.196.244.123.445.318.574.56.145.263.217.56.21.86.006.301-.066.598-.21.862a1.4 1.4 0 0 1-.575.56 1.8 1.8 0 0 1-.846.196h-.33v1.701zm1.169-2.492a.76.76 0 0 0 .553-.217.97.97 0 0 0 0-1.218.75.75 0 0 0-.553-.217h-.33v1.652zm4.368-.413v-2.03h.84v4.935h-.84v-2.1h-1.338v2.1h-.84v-4.935h.84v2.03zm3.17 2.975a1.47 1.47 0 0 1-1.274-.644q-.454-.645-.456-1.897 0-1.254.456-1.89a1.582 1.582 0 0 1 2.548 0q.455.645.455 1.89t-.455 1.897a1.46 1.46 0 0 1-1.282.644zm0-.784a.69.69 0 0 0 .644-.413q.224-.42.224-1.344t-.224-1.337a.69.69 0 0 0-.644-.413.71.71 0 0 0-.651.413q-.216.412-.217 1.337-.002.924.217 1.344a.71.71 0 0 0 .643.413zm3.894.784a1.46 1.46 0 0 1-1.267-.644q-.441-.645-.441-1.897c-.012-.469.06-.936.21-1.38.108-.337.312-.636.587-.86.257-.196.573-.3.896-.294.352-.013.696.11.96.343q.386.342.56 1.106l-.82.137a1.4 1.4 0 0 0-.28-.608.53.53 0 0 0-.406-.19q-.358 0-.61.406c-.168.27-.244.715-.244 1.344q0 .896.238 1.33c.158.29.366.427.609.427a.58.58 0 0 0 .448-.189c.143-.19.24-.41.28-.644l.819.133q-.182.784-.567 1.135c-.27.237-.621.361-.98.345zm2.448-5.005h2.604v4.935h-.84v-4.13h-.98l-.148 2.905q-.033.672-.308.987a.95.95 0 0 1-.762.308q-.174 0-.343-.042l-.084-.86.245.013a.37.37 0 0 0 .315-.133.84.84 0 0 0 .119-.469zm4.928 5.005a1.47 1.47 0 0 1-1.274-.644q-.456-.645-.455-1.897 0-1.254.455-1.89a1.582 1.582 0 0 1 2.548 0q.455.645.455 1.89.002 1.245-.455 1.897a1.46 1.46 0 0 1-1.278.644zm0-.784a.69.69 0 0 0 .644-.413q.224-.42.224-1.344t-.224-1.337a.69.69 0 0 0-.644-.413.71.71 0 0 0-.65.413q-.22.412-.218 1.337 0 .924.217 1.344a.71.71 0 0 0 .647.413zm4.328-1.82c.244.077.455.232.602.441.155.216.236.476.231.742a1.255 1.255 0 0 1-.728 1.176c-.26.122-.545.182-.833.175h-1.278v-4.935h1.176q.714 0 1.105.357a1.2 1.2 0 0 1 .4.959c.001.235-.064.466-.19.665a1.07 1.07 0 0 1-.49.42zm-1.162-1.61v1.253h.385a.576.576 0 0 0 .609-.616.62.62 0 0 0-.175-.462.6.6 0 0 0-.434-.175zm.44 3.353a.7.7 0 0 0 .505-.175.64.64 0 0 0 .189-.483.6.6 0 0 0-.19-.47.68.68 0 0 0-.504-.18h-.44v1.308zm3.444.791h-1.287v-4.935h.818v3.78h.127l1.028-3.78h1.288v4.935h-.819v-3.78h-.125zm5.25 0h-2.538v-4.935h2.485v.805h-1.645v1.246h1.45v.784h-1.45v1.295h1.694z"/></g><defs><clipPath id="a"><path fill="#fff" d="M0 0h56v56H0z"/></clipPath></defs></svg>