<svg xmlns="http://www.w3.org/2000/svg" viewBox="0 0 56 56" fill="none"><g clip-path="url(#a)"><path fill="#000" d="M53.375 0H2.625A2.624 2.624 0 0 0 0 2.625v50.75A2.624 2.624 0 0 0 2.624 56h50.752A2.623 2.623 0 0 0 56 53.375V2.625A2.626 2.626 0 0 0 53.375 0"/><path fill="#fff" d="M.875 42.875v10.5a1.75 1.75 0 0 0 1.75 1.75h50.75a1.75 1.75 0 0 0 1.75-1.75v-10.5zM26.033 9.862l-.948-1.1-1.71 1.07-.948.596-.16.238-1.817 2.701 2.494 1.69 2.033-1.99 2.068-2.027z"/><path fill="#fff" d="m14.875 21-9.624 5.687 9.968 1.503.166-.12 2.588-3.206.437-.543-1.75-2.862-.105-.175-.026-.2-.454-3.85-.044-.368.224-.289.07-.096.111-.157.735-.989c.622-.84 1.12-1.505 1.479-1.978l.412-.542.533.193.087-.132 1.987-2.94.105-.157.166-.106 2.657-1.676.665-.42.017-.018.516.604 1.96 2.274.245.28.21.097 2.17.946.395.175.122.42.586 2.074.043.14.07.035 2.608 1.147.534.236.017.577.07 2.363v.051l.017.01 1.904 1.015.535.288-.044.596-.202 2.851-.007.193-.097.176-3.465 6.608-.131.254-.254.131-2.319 1.225-1.181 1.33-.607.68 3.842 5.319.695-6.608 14.18 5.452-8.316-11.373 9.229-1.05-7.84-4.2 10.864-6.562-10.864-.63 5.174-5.499-8.746 2.968V8.771L33.507 10.5l.307-7.438L28 7.875l-3.5-5.25-3.062 5.688-8.75-4.375 3.294 8.21-12.271-.294z"/><path fill="#fff" d="m19.936 29.968.265.336.224.278L8.755 42h3.88l2.63-3.118 4.016-4.765.243.224.3.267-2.646 3.27L13.846 42h7.126l5.182-5.855 2.73-3.087-1.802-.087-2.94-2.258.583-.743 1.82 1.353.895.666 1.836.088.6-.317 2.777-1.469 3.465-6.608.112-1.58.089-1.273-.095-.05-1.827-.956-5.634 3.136-.187.43-.56 1.294-.224 1.383 1.422 1.068.372.278 1.593-2.03 1.983-.665.55-.19.073.356.104.494-2.074.805-2.038 2.601-1.527-1.142-1.528-1.144.212-1.332.07-.439-1.388-1.187-1.176-1.008-1.628.448-.038-.014-2.352-.85-.795-2.223-.399-.326-1.142-.927.604-.744 1.732 1.277.12.336.658 1.826 1.648.591 1.008-.272.286-.08.034-.152.272-1.232-.19-.722-.738-2.818-3.99-2.704-.148-.052v.018c-.261.335-.571.753-.884 1.169l-.591.794c-.286.384-.544.733-.73.987l-.049.065-.135.187.455 3.858.273.448 1.568 2.555 1.382 2.52-.315.154-.42.207-.308-.448-.812-1.18-1.545 1.935-1.247 1.568L1.297 39.328l-.422.303V42h6.318z"/><path fill="#fff" d="m27.351 23.728.64-1.473 5.898-3.279-.07-2.361-2.6-1.146-4.488 3.168-.639.86-.67.91-.248 1.121-.062.284 1.204 1.03zM24.39 16.039l.787 3.005.845-1.15 4.11-2.898.455-.322-.404-1.42-.187-.652-2.163-.947v.003l-4.05 3.97.394.267z"/><path fill="#000" d="M15.293 51.467h-.952l-.901-2.12h-.247v2.12h-.804v-2.12h-.245l-.903 2.12h-.952l1.239-2.569-1.112-2.365h.874l.855 2.008h.245v-2.008h.804v2.008h.246l.854-2.008h.875l-1.113 2.365zm2.782 0h-2.533v-4.934h2.49v.804h-1.65v1.246h1.448v.784h-1.448v1.295h1.693zm2.068.07a1.45 1.45 0 0 1-1.267-.644q-.441-.645-.441-1.896c-.012-.469.059-.936.21-1.38a1.84 1.84 0 0 1 .587-.86c.257-.197.573-.3.896-.295.352-.013.696.11.96.343q.386.345.56 1.106l-.816.137a1.4 1.4 0 0 0-.28-.61.52.52 0 0 0-.407-.189q-.356 0-.61.407c-.167.271-.243.714-.243 1.344q0 .895.237 1.33.237.432.61.426a.59.59 0 0 0 .447-.188c.143-.19.24-.41.28-.644l.82.132q-.182.784-.568 1.135c-.268.237-.617.36-.975.346m3.616-.07h-.84v-4.13h-1.154v-.804h3.149v.804h-1.155zm2.956.07a1.47 1.47 0 0 1-1.273-.644q-.456-.645-.455-1.896 0-1.253.455-1.89a1.583 1.583 0 0 1 2.547 0q.456.645.455 1.89 0 1.245-.454 1.896a1.46 1.46 0 0 1-1.275.644m0-.784a.69.69 0 0 0 .644-.412q.224-.42.224-1.344t-.224-1.338a.69.69 0 0 0-.644-.413.71.71 0 0 0-.65.413q-.217.414-.218 1.338 0 .924.217 1.344a.7.7 0 0 0 .651.412m4.013-1.848 1.428 2.562h-.965l-1.127-2.114h-.183v2.114h-.84v-4.934h.84v2.008h.168l1.07-2.008h.897zm3.096 2.632a1.47 1.47 0 0 1-1.275-.644q-.456-.645-.455-1.896.002-1.253.455-1.89a1.58 1.58 0 0 1 2.548 0q.455.645.455 1.89t-.455 1.896a1.46 1.46 0 0 1-1.273.644m0-.784a.69.69 0 0 0 .644-.412q.224-.42.224-1.344t-.224-1.338a.69.69 0 0 0-.644-.413.71.71 0 0 0-.652.413q-.217.414-.217 1.338t.217 1.344a.71.71 0 0 0 .652.412m3.893.784a1.46 1.46 0 0 1-1.267-.644q-.44-.645-.441-1.896c-.012-.47.06-.936.21-1.38a1.84 1.84 0 0 1 .588-.86c.257-.197.573-.3.896-.295.352-.013.695.11.959.343q.386.345.56 1.106l-.814.137a1.4 1.4 0 0 0-.28-.61.52.52 0 0 0-.406-.189q-.356 0-.609.407-.252.407-.245 1.344 0 .895.238 1.33.245.426.608.426a.58.58 0 0 0 .449-.188c.143-.189.24-.41.28-.644l.82.132q-.182.785-.569 1.135c-.269.238-.62.362-.98.346zm3.617-.07h-.84v-4.13h-1.158v-.804h3.15v.804h-1.158zm1.578 0v-4.934h.84v1.7h.33c.294-.005.584.062.846.196.244.127.445.325.575.568.144.26.217.555.21.853.007.303-.066.602-.21.868-.132.24-.332.435-.575.56a1.8 1.8 0 0 1-.846.19zm1.17-.805a.76.76 0 0 0 .553-.21.94.94 0 0 0 0-1.203.76.76 0 0 0-.553-.21h-.33v1.623z"/></g><defs><clipPath id="a"><path fill="#fff" d="M0 0h56v56H0z"/></clipPath></defs></svg>