<svg xmlns="http://www.w3.org/2000/svg" viewBox="0 0 24 24" fill="currentColor"><path fill-rule="evenodd" d="M12 5.188a6.38 6.38 0 0 0-5.06-1.529c-1.312.184-2.59.803-3.54 1.898-.957 1.106-1.48 2.58-1.48 4.298 0 2.039.88 3.847 1.944 5.301 1.07 1.463 2.43 2.712 3.642 3.67a7.205 7.205 0 0 0 8.988 0c1.212-.958 2.571-2.207 3.642-3.67 1.063-1.454 1.944-3.262 1.944-5.3 0-1.718-.523-3.193-1.48-4.299-.95-1.095-2.228-1.714-3.54-1.898A6.38 6.38 0 0 0 12 5.188m-.744 1.984a4.47 4.47 0 0 0-4.05-1.611c-.898.125-1.738.542-2.354 1.253S3.84 8.536 3.84 9.855c0 1.48.642 2.894 1.574 4.168.93 1.272 2.146 2.398 3.283 3.298a5.285 5.285 0 0 0 6.606 0c1.137-.9 2.352-2.026 3.283-3.299s1.574-2.687 1.574-4.167c0-1.32-.396-2.33-1.012-3.04-.616-.712-1.456-1.129-2.354-1.254a4.47 4.47 0 0 0-4.05 1.611.96.96 0 0 1-1.488 0" clip-rule="evenodd"/></svg>