<svg xmlns="http://www.w3.org/2000/svg" viewBox="0 0 24 24" fill="currentColor"><path fill-rule="evenodd" d="M19.73 7.308a3.36 3.36 0 0 1 1.87 3.012v8.4a3.36 3.36 0 0 1-3.36 3.36H5.76a3.36 3.36 0 0 1-3.36-3.36v-8.4a3.36 3.36 0 0 1 1.87-3.012l-.034-.05c-.557-.856-.597-1.782-.597-2.15 0-.528.229-1.353.779-2.058.587-.752 1.545-1.37 2.937-1.37 1.836 0 3.19 1.151 4.06 2.379.218.306.413.627.585.954.172-.327.367-.648.584-.954.87-1.228 2.225-2.379 4.061-2.379 1.391 0 2.35.618 2.937 1.37.55.705.78 1.53.78 2.058 0 .368-.04 1.294-.598 2.15zm-3.252-.348c1.09-.034 1.532-.422 1.732-.729.256-.391.27-.844.27-1.1 0-.095-.057-.54-.359-.926-.264-.338-.7-.605-1.476-.605-.99 0-1.854.565-2.548 1.545-.416.586-.697 1.227-.896 1.815zm-5.678 0c-.199-.588-.48-1.228-.897-1.815C9.21 4.165 8.394 3.6 7.405 3.6c-.776 0-1.262.267-1.526.605a1.7 1.7 0 0 0-.36.903c0 .256.015.732.27 1.123.21.322.642.729 1.848.729zm-6.48 3.36c0-.795.645-1.44 1.44-1.44h5.28v4.56H4.32zm0 5.04h6.72v4.8H5.76a1.44 1.44 0 0 1-1.44-1.44zm15.36 3.36v-3.36h-6.72v4.8h5.28a1.44 1.44 0 0 0 1.44-1.44m-6.72-9.84v4.56h6.72v-3.12a1.44 1.44 0 0 0-1.44-1.44z" clip-rule="evenodd"/></svg>