<svg xmlns="http://www.w3.org/2000/svg" viewBox="0 0 24 24" fill="currentColor"><path d="M16.611 18.803s-.596-.704-1.093-1.31c2.17-.606 2.997-1.932 2.997-1.932a9.5 9.5 0 0 1-1.904.966c-.828.344-1.622.557-2.4.704-1.59.295-3.047.213-4.288-.016a12.7 12.7 0 0 1-2.434-.704 10 10 0 0 1-1.209-.557c-.05-.033-.1-.05-.149-.082-.033-.016-.05-.033-.066-.033-.298-.163-.464-.278-.464-.278s.795 1.293 2.898 1.916c-.497.622-1.11 1.342-1.11 1.342-3.658-.114-5.05-2.472-5.05-2.472 0-5.223 2.385-9.463 2.385-9.463C7.108 5.132 9.36 5.18 9.36 5.18l.165.196c-2.98.835-4.338 2.129-4.338 2.129s.365-.197.977-.459c1.772-.77 3.18-.966 3.759-1.031.099-.016.182-.033.281-.033a14.2 14.2 0 0 1 3.344-.033c1.573.18 3.262.639 4.984 1.556 0 0-1.308-1.228-4.123-2.063l.232-.262s2.268-.05 4.636 1.703c0 0 2.384 4.24 2.384 9.463 0-.017-1.39 2.341-5.05 2.456m-1.655-7.58c-.944 0-1.69.802-1.69 1.8 0 .999.762 1.801 1.69 1.801.943 0 1.688-.802 1.688-1.8 0-1-.761-1.802-1.688-1.802m-6.043 0c-.944 0-1.69.802-1.69 1.8 0 .999.762 1.801 1.69 1.801.943 0 1.688-.802 1.688-1.8.017-1-.745-1.802-1.688-1.802"/></svg>