<svg viewBox="0 0 24 24" fill="none" xmlns="http://www.w3.org/2000/svg">
<path d="M24 12C24 5.37263 18.6273 0 12 0C5.37263 0 0 5.37263 0 12C0 17.6275 3.87455 22.3497 9.10126 23.6467V15.6672H6.62687V12H9.10126V10.4198C9.10126 6.33551 10.9497 4.44239 14.9597 4.44239C15.72 4.44239 17.0318 4.59167 17.5684 4.74047V8.06446C17.2852 8.0347 16.7932 8.01982 16.1822 8.01982C14.2147 8.01982 13.4544 8.76526 13.4544 10.703V12H17.374L16.7006 15.6672H13.4544V23.9121C19.3963 23.1945 24.0004 18.1353 24.0004 12H24Z" fill="#0866FF"/>
<path d="M16.7017 15.6672L17.3751 12H13.4554V10.703C13.4554 8.76526 14.2158 8.01982 16.1833 8.01982C16.7943 8.01982 17.2863 8.0347 17.5695 8.06446V4.74046C17.0329 4.59118 15.721 4.44238 14.9607 4.44238C10.9508 4.44238 9.10233 6.3355 9.10233 10.4198V12H6.62793V15.6672H9.10233V23.6467C10.0306 23.8771 11.0017 23.9999 12.001 23.9999C12.493 23.9999 12.9783 23.9697 13.455 23.9121V15.6672H16.7012H16.7017Z" fill="white"/>
</svg>
