<svg viewBox="0 0 24 24" fill="none" xmlns="http://www.w3.org/2000/svg">
<path d="M19.7916 8.40526C19.0848 8.40428 18.3976 8.638 17.8379 9.06974C16.3651 8.15836 14.5101 7.58512 12.4705 7.50891V7.50032C12.4706 6.84783 12.706 6.21727 13.1335 5.72432C13.561 5.23137 14.1519 4.9091 14.7978 4.81662C14.9276 5.36561 15.2555 5.84735 15.7186 6.16947C16.1817 6.49159 16.7475 6.63141 17.3073 6.56212C17.8672 6.49283 18.3817 6.21931 18.7524 5.79401C19.123 5.3687 19.3235 4.82155 19.3156 4.25749C19.3076 3.69342 19.0917 3.15214 18.7093 2.73744C18.3269 2.32274 17.8048 2.06382 17.2432 2.01032C16.6816 1.95683 16.1201 2.11253 15.6662 2.44756C15.2124 2.78259 14.8982 3.27338 14.7839 3.8258C13.8773 3.9248 13.0393 4.35525 12.4309 5.03447C11.8224 5.71369 11.4863 6.59377 11.4872 7.50569V7.51749C9.47336 7.6023 7.63449 8.17553 6.17456 9.08048C5.81775 8.80385 5.40657 8.60564 4.96791 8.4988C4.52925 8.39196 4.07298 8.3789 3.62892 8.46047C3.18487 8.54204 2.76303 8.7164 2.39097 8.97216C2.01892 9.22792 1.70502 9.55933 1.46982 9.9447C1.23461 10.3301 1.08338 10.7608 1.02601 11.2086C0.96864 11.6564 1.00643 12.1113 1.1369 12.5435C1.26737 12.9757 1.48759 13.3756 1.78316 13.7169C2.07873 14.0581 2.443 14.3332 2.85215 14.5241C2.9595 18.249 7.01725 21.2451 12.01 21.2451C17.0027 21.2451 21.0669 18.2458 21.1678 14.5176C21.8258 14.2052 22.3578 13.6782 22.6765 13.0232C22.9952 12.3683 23.0816 11.6244 22.9215 10.9139C22.7614 10.2033 22.3643 9.56842 21.7955 9.11348C21.2267 8.65855 20.52 8.41068 19.7916 8.41063V8.40526Z" fill="#FF4500"/>
</svg>
