<svg xmlns="http://www.w3.org/2000/svg" viewBox="0 0 24 24" fill="currentColor"><path d="M14.59 11.498h-6.5V8.926h6.5c.379 0 .643.066.775.182.133.115.215.33.215.643v.923c0 .33-.082.544-.215.66-.132.115-.396.165-.776.165zm.445-4.997H5.333V17.5H8.09v-3.578h5.08l2.41 3.578h3.086l-2.657-3.595c.98-.145 1.42-.446 1.782-.94.363-.495.545-1.287.545-2.342v-.825c0-.626-.066-1.121-.182-1.5a2.5 2.5 0 0 0-.594-1.006 2.7 2.7 0 0 0-1.023-.61c-.397-.116-.892-.182-1.502-.182z"/><path fill-rule="evenodd" d="M12 1c0 1.54.316 3.004.887 4.334h2.148q1.036-.002 1.828.228l.022.006.021.007c.556.185 1.034.47 1.456.87l.023.021.022.024c.396.418.691.903.863 1.467.16.523.233 1.14.233 1.84v.826q.001.406-.034.798c1.108.375 2.296.579 3.531.579V6.333A5.333 5.333 0 0 0 17.667 1z" clip-rule="evenodd"/><path fill-rule="evenodd" d="M14.467 1.333H9.533c-1.499 0-2.603 0-3.475.072-.87.07-1.479.21-1.995.473a5 5 0 0 0-2.185 2.185c-.262.516-.402 1.126-.473 1.995-.071.872-.072 1.976-.072 3.475v4.934c0 1.499 0 2.603.072 3.475.07.87.21 1.479.473 1.995a5 5 0 0 0 2.185 2.185c.516.262 1.126.402 1.995.473.872.071 1.976.072 3.475.072h4.934c1.499 0 2.603 0 3.475-.072.87-.07 1.479-.21 1.995-.473a5 5 0 0 0 2.185-2.185c.262-.516.402-1.126.473-1.995.071-.872.072-1.976.072-3.475V9.533c0-1.499 0-2.603-.072-3.475-.07-.87-.21-1.479-.473-1.995a5 5 0 0 0-2.185-2.185c-.516-.262-1.126-.402-1.995-.473-.872-.071-1.976-.072-3.475-.072M1.58 3.912C1 5.052 1 6.546 1 9.533v4.934c0 2.987 0 4.48.581 5.62a5.33 5.33 0 0 0 2.331 2.332C5.052 23 6.546 23 9.533 23h4.934c2.987 0 4.48 0 5.62-.581a5.33 5.33 0 0 0 2.332-2.331c.581-1.14.581-2.634.581-5.621V9.533c0-2.987 0-4.48-.581-5.62a5.33 5.33 0 0 0-2.331-2.332C18.948 1 17.454 1 14.467 1H9.533c-2.987 0-4.48 0-5.62.581A5.33 5.33 0 0 0 1.58 3.912" clip-rule="evenodd"/></svg>