<svg xmlns="http://www.w3.org/2000/svg" viewBox="0 0 24 24" fill="none"><rect width="22" height="22" x="1" y="1" fill="#100943" rx="5.333"/><path fill="#ED143B" fill-rule="evenodd" d="M12.166 1h5.5a5.333 5.333 0 0 1 5.333 5.333V12C17.001 11.909 12.166 7.019 12.166 1" clip-rule="evenodd"/><path fill="#fff" d="M14.59 11.498h-6.5V8.926h6.5c.38 0 .644.066.776.182.133.115.215.33.215.643v.923c0 .33-.082.544-.215.66-.132.115-.396.165-.776.165zm.446-4.997H5.334V17.5H8.09v-3.578h5.08l2.41 3.578h3.087l-2.657-3.595c.98-.145 1.42-.446 1.782-.94.363-.495.545-1.287.545-2.342v-.825c0-.626-.066-1.121-.182-1.5a2.5 2.5 0 0 0-.594-1.006 2.7 2.7 0 0 0-1.023-.61c-.397-.116-.892-.182-1.502-.182z"/></svg>