<svg xmlns="http://www.w3.org/2000/svg" viewBox="0 0 24 24" fill="none"><g fill="#231F20" clip-path="url(#a)"><path d="M.494 15.5c1.5 4.919 6.079 8.5 11.493 8.5C18.622 24 24 18.627 24 12S18.622 0 11.987 0C5.621 0 .411 4.947 0 11.203l.005.008v-.001l6.455 2.657q.266-.18.563-.3c.453-.186.93-.27 1.407-.248l2.939-4.265-.001-.06h-.004a4.57 4.57 0 0 1 4.563-4.565 4.57 4.57 0 0 1 4.563 4.565 4.57 4.57 0 0 1-4.563 4.568l-.103-.002-4.202 3.002a3.33 3.33 0 0 1-2.063 3.168 3.34 3.34 0 0 1-2.55-.004 3.31 3.31 0 0 1-1.967-2.351z"/><path d="M7.301 19.023a2.57 2.57 0 0 0 3.361-1.385h-.003a2.56 2.56 0 0 0 .004-1.967 2.54 2.54 0 0 0-1.388-1.395 2.56 2.56 0 0 0-1.895-.029l1.539.636a1.895 1.895 0 0 1 .608 3.088 1.89 1.89 0 0 1-2.063.407l-1.486-.615a2.57 2.57 0 0 0 1.323 1.26"/><path fill-rule="evenodd" d="M13.782 11.144a3.05 3.05 0 0 0 2.15.893 3.05 3.05 0 0 0 3.04-3.042 3.043 3.043 0 0 0-3.04-3.041 3.05 3.05 0 0 0-3.04 3.041c0 .806.32 1.578.89 2.149m.539-3.768a2.28 2.28 0 0 0 0 3.229c.428.428 1.009.67 1.615.67A2.29 2.29 0 0 0 18.22 8.99a2.286 2.286 0 0 0-2.284-2.285 2.29 2.29 0 0 0-1.615.67" clip-rule="evenodd"/></g><defs><clipPath id="a"><path fill="#fff" d="M0 0h24v24H0z"/></clipPath></defs></svg>