<svg xmlns="http://www.w3.org/2000/svg" width="24" height="24" viewBox="0 0 24 24" fill="none">
<g clip-path="url(#clip0_2553_20576)">
<path d="M0.494492 15.5006C1.99467 20.419 6.57286 24 11.987 24C18.6216 24 24 18.6274 24 12C24 5.37263 18.6216 0 11.987 0C5.62094 0 0.411444 4.94738 0 11.2028C0.00167364 11.2056 0.00334507 11.2084 0.00501431 11.2112L0.00508868 11.2099L6.46017 13.8675C6.63664 13.7482 6.82512 13.6477 7.02253 13.5675C7.47602 13.3811 7.95353 13.2975 8.42955 13.3193L11.369 9.05364L11.3678 8.99439H11.3641C11.3641 6.47664 13.4112 4.42914 15.9271 4.42914C18.448 4.43439 20.4902 6.47664 20.4902 8.99439C20.4902 11.5121 18.4442 13.5619 15.9271 13.5619L15.8239 13.56L11.622 16.5619C11.6341 17.0319 11.5466 17.4991 11.3652 17.9329C11.0252 18.7473 10.3755 19.3936 9.55874 19.7298C8.74204 20.066 7.82513 20.0647 7.00939 19.7261C5.97252 19.2949 5.26676 18.3979 5.04152 17.3749L0.494492 15.5006Z" fill="white"/>
<path d="M7.30108 19.0234C8.61012 19.5683 10.1162 18.9506 10.6621 17.6381H10.6591C10.9226 17.0059 10.9241 16.3058 10.6628 15.6709C10.4015 15.036 9.91352 14.5395 9.27533 14.2759C8.6454 14.0145 7.97193 14.022 7.37954 14.247L8.9187 14.8826C9.38227 15.0761 9.74999 15.4455 9.9411 15.9096C10.1322 16.3738 10.1311 16.8947 9.93792 17.358C9.84254 17.5873 9.70287 17.7956 9.52688 17.9709C9.3509 18.1463 9.14205 18.2852 8.91227 18.3799C8.68249 18.4746 8.43628 18.5232 8.18772 18.5228C7.93916 18.5224 7.69311 18.4731 7.46363 18.3776L5.97815 17.7626C6.24934 18.3308 6.72018 18.7795 7.30108 19.0234Z" fill="white"/>
<path fill-rule="evenodd" clip-rule="evenodd" d="M13.7821 11.1437C14.3519 11.7139 15.1247 12.0353 15.9313 12.0375C16.738 12.0355 17.511 11.7142 18.0809 11.1439C18.6509 10.5737 18.9713 9.80097 18.972 8.99514C18.9711 8.18944 18.6506 7.41693 18.0807 6.84683C17.5107 6.27672 16.7378 5.9555 15.9313 5.95351C15.1248 5.9557 14.3521 6.27701 13.7823 6.84709C13.2125 7.41717 12.8921 8.18957 12.8912 8.99514C12.8919 9.80084 13.2123 10.5734 13.7821 11.1437ZM14.3209 7.37552C13.8929 7.8041 13.6528 8.3849 13.6533 8.99026C13.653 9.59556 13.8929 10.1762 14.321 10.6047C14.749 11.0331 15.3298 11.2742 15.9358 11.2751C16.5419 11.2745 17.123 11.0335 17.5513 10.6051C17.9796 10.1766 18.22 9.59576 18.2197 8.99026C18.2197 7.72839 17.1952 6.70464 15.9358 6.70464C15.3297 6.70563 14.7489 6.94694 14.3209 7.37552Z" fill="white"/>
</g>
<defs>
<clipPath id="clip0_2553_20576">
<rect width="24" height="24" fill="white"/>
</clipPath>
</defs>
</svg>