<svg viewBox="0 0 24 24" fill="none" xmlns="http://www.w3.org/2000/svg">
<path d="M12 24C18.6274 24 24 18.6274 24 12C24 5.37258 18.6274 0 12 0C5.37258 0 0 5.37258 0 12C0 18.6274 5.37258 24 12 24Z" fill="black"/>
<path d="M10.3305 9.97735V9.32239C9.20031 9.16722 8.05074 9.3968 7.06682 9.9742C6.0829 10.5516 5.32184 11.4432 4.90612 12.5056C4.49039 13.568 4.44418 14.7393 4.77491 15.8312C5.10564 16.923 5.79408 17.8718 6.72945 18.525C6.06044 17.8082 5.61307 16.9131 5.44129 15.9478C5.2695 14.9825 5.38064 13.9881 5.76129 13.0845C6.14194 12.1809 6.77586 11.4067 7.5866 10.8553C8.39734 10.3039 9.35029 9.99877 10.3305 9.97675V9.97735Z" fill="#25F4EE"/>
<path d="M10.4504 17.3855C11.0509 17.3845 11.6277 17.1512 12.0599 16.7344C12.4922 16.3176 12.7464 15.7497 12.7692 15.1497L12.7735 4.07313H14.7973C14.7542 3.84164 14.7325 3.60668 14.7323 3.37122H11.968L11.9638 14.4478C11.9498 14.8398 11.8367 15.2218 11.6348 15.5582C11.433 15.8945 11.1491 16.1742 10.8098 16.3709C10.4704 16.5677 10.0867 16.6751 9.69449 16.6831C9.30232 16.6912 8.91451 16.5995 8.56738 16.4169C8.782 16.7162 9.06475 16.9601 9.39228 17.1285C9.7198 17.2969 10.0827 17.385 10.451 17.3855H10.4504Z" fill="#25F4EE"/>
<path d="M18.5777 7.83191V7.21608C17.8339 7.21666 17.1061 7.00035 16.4834 6.59363C17.0292 7.22204 17.7641 7.65653 18.5777 7.83191Z" fill="#25F4EE"/>
<path d="M16.483 6.59302C15.8729 5.89491 15.5368 4.99907 15.5373 4.0719H14.7969C14.8927 4.58435 15.0916 5.07202 15.3814 5.50537C15.6713 5.93872 16.046 6.30874 16.483 6.59302Z" fill="#FE2C55"/>
<path d="M9.6448 12.0398C9.12524 12.0395 8.6206 12.2135 8.21158 12.5339C7.80256 12.8543 7.51279 13.3026 7.38861 13.8071C7.26442 14.3116 7.31299 14.8432 7.52656 15.3169C7.74012 15.7905 8.10634 16.1789 8.56665 16.4198C8.27819 16.0256 8.12177 15.5503 8.11974 15.0618C8.11772 14.5734 8.2702 14.0968 8.55538 13.7002C8.84055 13.3036 9.24383 13.0074 9.70753 12.8538C10.1712 12.7003 10.6716 12.6973 11.1371 12.8452V10.0237C10.91 9.99151 10.6809 9.97482 10.4515 9.97375C10.4111 9.97375 10.3714 9.97375 10.3311 9.97375V12.1409C10.1086 12.0724 9.87697 12.0383 9.6442 12.0398H9.6448Z" fill="#FE2C55"/>
<path d="M18.5778 7.83191V9.9804C17.198 9.98188 15.8527 9.54931 14.7323 8.74392V14.3611C14.7331 15.2917 14.4783 16.2048 13.9957 17.0006C13.5132 17.7964 12.8215 18.4445 11.9959 18.8742C11.1703 19.3038 10.2427 19.4986 9.31399 19.4373C8.38534 19.3759 7.49134 19.0608 6.72949 18.5262C7.42499 19.2746 8.32985 19.7962 9.32609 20.0228C10.3223 20.2495 11.3638 20.1707 12.3146 19.7968C13.2654 19.4229 14.0816 18.7713 14.6566 17.9268C15.2316 17.0822 15.5389 16.0841 15.5384 15.0624V9.44523C16.6588 10.251 18.0044 10.6836 19.3845 10.6817V7.91739C19.1137 7.91725 18.8437 7.88859 18.579 7.83191H18.5778Z" fill="#FE2C55"/>
<path d="M14.7319 14.3605V8.74332C15.8521 9.54896 17.1975 9.98156 18.5774 9.9798V7.83131C17.7637 7.65592 17.0289 7.22143 16.4831 6.59302C16.0462 6.30868 15.6715 5.93863 15.3818 5.50528C15.0921 5.07194 14.8933 4.5843 14.7975 4.0719H12.773L12.7688 15.1485C12.7509 15.6318 12.5822 16.0975 12.2865 16.4802C11.9907 16.863 11.5827 17.1436 11.1195 17.283C10.6563 17.4223 10.1612 17.4133 9.70336 17.2573C9.24554 17.1012 8.84798 16.8059 8.56634 16.4126C8.04922 16.1464 7.65094 15.6957 7.45041 15.1498C7.24988 14.6038 7.26173 14.0024 7.4836 13.4648C7.70546 12.9272 8.12117 12.4925 8.64837 12.2468C9.17557 12.0012 9.7758 11.9625 10.3302 12.1385V9.97137C9.34991 9.99339 8.39697 10.2985 7.58622 10.8499C6.77548 11.4013 6.14157 12.1755 5.76091 13.0791C5.38026 13.9827 5.26913 14.9771 5.44091 15.9424C5.6127 16.9078 6.06007 17.8028 6.72908 18.5196C7.49093 19.0541 8.38492 19.3693 9.31358 19.4306C10.2422 19.492 11.1699 19.2972 11.9955 18.8675C12.821 18.4379 13.5128 17.7898 13.9953 16.994C14.4779 16.1981 14.7326 15.2851 14.7319 14.3544V14.3605Z" fill="white"/>
</svg>
