<svg xmlns="http://www.w3.org/2000/svg" viewBox="0 0 24 24" fill="currentColor"><path d="m12.5 13.746-5.997 5.997a.86.86 0 0 1-.618.251.84.84 0 0 1-.628-.25A.85.85 0 0 1 5 19.12q0-.366.257-.623l5.997-5.997-5.997-5.997a.86.86 0 0 1-.251-.618.84.84 0 0 1 .25-.628A.85.85 0 0 1 5.88 5q.366 0 .623.257l5.997 5.997 5.997-5.997a.86.86 0 0 1 .618-.251.84.84 0 0 1 .628.25q.257.258.257.624a.85.85 0 0 1-.257.623L13.746 12.5l5.997 5.997q.245.246.251.618a.84.84 0 0 1-.25.628.85.85 0 0 1-.624.257.85.85 0 0 1-.623-.257z"/></svg>