<svg xmlns="http://www.w3.org/2000/svg" viewBox="0 0 24 24" fill="currentColor"><path d="M2 21c0-.552.48-1 1.071-1H20.93c.591 0 1.071.448 1.071 1s-.48 1-1.071 1H3.07C2.48 22 2 21.552 2 21M11.996 16.667q-.26 0-.485-.078a1.2 1.2 0 0 1-.426-.266l-4.482-4.18a.92.92 0 0 1-.317-.702 1 1 0 0 1 .317-.715 1.14 1.14 0 0 1 .77-.322q.436-.01.771.302l2.771 2.585V3.008q0-.429.311-.718.31-.29.77-.29t.77.29q.312.29.311.718v10.283l2.772-2.585q.321-.3.763-.296t.778.316q.312.314.324.709.011.396-.324.708l-4.482 4.18a1.2 1.2 0 0 1-.427.266q-.224.078-.485.078"/></svg>