<svg xmlns="http://www.w3.org/2000/svg" viewBox="0 0 24 24" fill="currentColor"><path d="M3.034 18.556a.84.84 0 0 1-.618-.251.85.85 0 0 1-.25-.622q0-.37.25-.622a.84.84 0 0 1 .618-.25h17.932q.369 0 .618.25.25.251.25.623a.85.85 0 0 1-.25.622.84.84 0 0 1-.618.25zm0-5.683a.84.84 0 0 1-.618-.251.85.85 0 0 1-.25-.622q0-.372.25-.622a.84.84 0 0 1 .618-.25h17.932q.369 0 .618.25.25.252.25.622a.85.85 0 0 1-.25.622.84.84 0 0 1-.618.25zm0-5.684a.84.84 0 0 1-.618-.25.85.85 0 0 1-.25-.623q0-.37.25-.622a.84.84 0 0 1 .618-.25h17.932q.369 0 .618.251.25.25.25.622a.85.85 0 0 1-.25.622.84.84 0 0 1-.618.25z"/></svg>