<svg xmlns="http://www.w3.org/2000/svg" viewBox="0 0 20 20" fill="currentColor"><path fill="currentColor" d="M1.458 10.875a.76.76 0 0 1-.24-.584.84.84 0 0 1 .261-.583.88.88 0 0 1 .583-.24.76.76 0 0 1 .584.24l3.541 3.542a.76.76 0 0 1 .24.583.84.84 0 0 1-.26.583.88.88 0 0 1-.584.24.76.76 0 0 1-.583-.24zm8.834 1.77 7.083-7.083a.76.76 0 0 1 .583-.24.84.84 0 0 1 .584.261.88.88 0 0 1 .24.583.76.76 0 0 1-.24.584l-7.667 7.666a.8.8 0 0 1-.583.25.8.8 0 0 1-.584-.25l-3.541-3.541a.78.78 0 0 1-.23-.573.85.85 0 0 1 .23-.594.8.8 0 0 1 .593-.25q.344 0 .594.25zm3.52-5.874-2.937 2.937a.78.78 0 0 1-.573.23.85.85 0 0 1-.594-.23.81.81 0 0 1-.25-.594q0-.344.25-.593l2.938-2.938a.78.78 0 0 1 .573-.23q.344 0 .593.23.25.25.25.594t-.25.594"/></svg>