<svg xmlns="http://www.w3.org/2000/svg" viewBox="0 0 48 56" fill="none"><path fill="#373C42" d="M0 2.24C0 1.003 1.075 0 2.4 0h43.2C46.925 0 48 1.003 48 2.24v51.52c0 1.237-1.075 2.24-2.4 2.24H2.4C1.075 56 0 54.997 0 53.76z"/><path fill="#fff" d="M17.673 44h-5.451V23.631l.04-1.9q.04-.948.08-1.855-.279.41-.657.928t-.896 1.143l-2.526 2.827L5 21.28l7.819-8.826h4.854zM36 44H20.144v-4.294l5.59-8.437q1.79-2.697 2.726-4.467.934-1.791 1.253-3.15.338-1.38.338-2.805 0-1.662-.736-2.633-.716-.992-2.149-.992-1.134 0-2.148.647-1.015.648-2.268 2.309l-2.686-3.927q1.214-1.554 2.387-2.482 1.194-.95 2.507-1.359a9.5 9.5 0 0 1 2.845-.41q2.308 0 4.059 1.079 1.751 1.057 2.725 2.956t.975 4.445q0 2.093-.457 3.992-.458 1.877-1.552 3.927t-3.004 4.64l-3.88 5.523v.216H36zM40.134 29.885H43v1.258h-2.866V34H38.86v-2.857H36v-1.258h2.859V27h1.275z"/></svg>