<svg xmlns="http://www.w3.org/2000/svg" viewBox="0 0 56 56" fill="none"><g clip-path="url(#a)"><mask id="b" width="56" height="56" x="0" y="0" maskUnits="userSpaceOnUse" style="mask-type:luminance"><path fill="#fff" d="M53.375 0H2.625A2.625 2.625 0 0 0 0 2.625v50.75A2.625 2.625 0 0 0 2.625 56h50.75A2.625 2.625 0 0 0 56 53.375V2.625A2.625 2.625 0 0 0 53.375 0"/></mask><g mask="url(#b)"><path fill="#000" d="M56 0H0v56h56z"/></g><path fill="#fff" d="M2.626 55.124h50.749a1.75 1.75 0 0 0 1.75-1.75V35H.876v18.375a1.75 1.75 0 0 0 1.75 1.75M30.765 19.534h-.788v3.2h.788zM31.97 17.725h-.79v3.201h.79zM33.175 19.534h-.787v3.2h.787zM31.97 21.343h-.79v1.39h.79zM29.558 19.534h-.788v3.2h.788z"/><path fill="#fff" d="M36.763 20.463a.3.3 0 0 0-.213-.089h-.392v2.698a.31.31 0 0 1-.186.278.3.3 0 0 1-.115.023H28.52a.3.3 0 0 1-.213-.088.3.3 0 0 1-.084-.213v-2.698h-.411a.3.3 0 0 0-.301.301v3.276h9.336v-3.276c0-.08-.03-.155-.085-.213M27.505 31.828q0 .121.046.23a.6.6 0 0 0 .326.327q.107.045.224.046h8.139a.604.604 0 0 0 .603-.603v-6.954h-9.338zm.905-6.33h7.542v.905l-7.536 1.808zm0 5.125 7.542-1.809v2.713H28.41z"/><path fill="#fff" d="M35.587 19.534H34.8v3.2h.788zM34.38 19.534h-.788v3.2h.788zM27.815 19.472v-.904h.905v-1.32H18.456V30.41l.112.112c.24.219.526.382.836.48q.576.197 1.178.294c1.988.31 4.012.31 6 0h.015v-7.328l-.38.731-.768-.395.841-1.623-.84-1.622.771-.395.387.731v-1.02a.92.92 0 0 1 .266-.64.9.9 0 0 1 .64-.265zm-6.087 4.838-.771.394-.56-1.074-.553 1.074-.776-.394.84-1.623-.84-1.622.776-.395.553 1.074.56-1.074.77.395-.84 1.622zm3.267.233-.816.448-.576-1.232-.585 1.232-.808-.448.883-1.856-.887-1.855.807-.448.585 1.232.577-1.232.815.448-.883 1.855zM28.258 15.984l-1.929-1.76c-.012-.011-.014-.028-.024-.04h-4.657l-.834.065-1.904 1.73a1.4 1.4 0 0 0-.267.352h9.884a1.4 1.4 0 0 0-.27-.347M26.196 13.26c.19-.949.265-1.792.17-2.651a9 9 0 0 0-.494-2.043l-4.572.013a9 9 0 0 0-.494 2.026c-.099.867-.024 1.705.17 2.655zM21.426 7.656l4.334-.013.009-.012a.5.5 0 0 0 .031-.21l-.197-3.44A.505.505 0 0 0 25.1 3.5h-3.024a.505.505 0 0 0-.503.482l-.192 3.44a.5.5 0 0 0 .031.209c0 .009.01.016.014.025"/><path fill="#000" d="M17.375 43.627H16.5l-.204-.986h-1.372l-.216.986h-.868l1.168-4.934h1.254zm-1.813-3.92-.462 2.128h1.028l-.44-2.128zm2.814-1.014h2.604v4.934h-.84v-4.13h-.98l-.147 2.905q-.034.672-.308.987a.95.95 0 0 1-.762.308q-.175 0-.343-.042l-.084-.861.244.015a.37.37 0 0 0 .316-.134.85.85 0 0 0 .119-.469zm5.032 2.372 1.428 2.562h-.969l-1.13-2.114h-.182v2.114h-.84v-4.934h.84V40.7h.168l1.07-2.008h.896zm3.093 2.632a1.47 1.47 0 0 1-1.275-.644q-.453-.645-.455-1.896 0-1.252.455-1.891a1.582 1.582 0 0 1 2.548 0q.454.645.456 1.89.001 1.246-.454 1.897a1.46 1.46 0 0 1-1.278.644zm0-.784a.69.69 0 0 0 .644-.412q.224-.42.224-1.344t-.224-1.338a.69.69 0 0 0-.644-.413.71.71 0 0 0-.651.413q-.216.414-.217 1.338t.217 1.344a.7.7 0 0 0 .648.412zm3.166.714h-.84v-4.934h2.485v.804h-1.647zm3.48.07a1.47 1.47 0 0 1-1.273-.644q-.455-.645-.455-1.896-.002-1.252.455-1.891a1.582 1.582 0 0 1 2.548 0q.455.645.455 1.89 0 1.246-.455 1.897a1.46 1.46 0 0 1-1.276.644zm0-.784a.69.69 0 0 0 .645-.412q.224-.42.224-1.344t-.224-1.338a.69.69 0 0 0-.644-.413.71.71 0 0 0-.651.413q-.217.414-.217 1.338t.217 1.344a.7.7 0 0 0 .648.412zm2.736-4.22h2.604v4.934h-.84v-4.13h-.98l-.147 2.905q-.036.672-.308.987a.96.96 0 0 1-.764.308q-.173 0-.343-.042l-.083-.861.245.015a.37.37 0 0 0 .314-.134.83.83 0 0 0 .12-.469zm3.342 4.934v-4.934h.84v1.7h.33a1.8 1.8 0 0 1 .846.196c.244.127.444.325.574.568.145.26.217.555.21.853.007.303-.065.602-.21.868-.131.24-.331.434-.574.56a1.8 1.8 0 0 1-.847.19zm1.17-.805a.76.76 0 0 0 .552-.21.946.946 0 0 0 0-1.203.76.76 0 0 0-.553-.211h-.331v1.624zm-25.376 8.68h-1.288v-4.935h.82v3.78h.121l1.028-3.78h1.288v4.935h-.818v-3.78h-.126zm5.63-2.558 1.428 2.561h-.966l-1.128-2.113h-.181v2.113h-.84v-4.938h.84v2.01h.168l1.07-2.01h.897zm3.734-2.373h.853l-1.105 3.793q-.183.63-.455.89c-.2.176-.462.266-.728.251h-.588l-.077-.84h.601a.45.45 0 0 0 .252-.056.4.4 0 0 0 .14-.209l-1.26-3.83h.896l.728 2.465h.092zm1.24 4.934v-4.938h1.169c.294-.006.585.061.846.196.245.123.446.319.575.56.145.264.217.561.21.862.006.3-.066.596-.21.86-.132.24-.332.434-.575.56a1.8 1.8 0 0 1-.846.196h-.33v1.701zm1.169-2.492a.75.75 0 0 0 .553-.217.965.965 0 0 0 0-1.217.75.75 0 0 0-.553-.218h-.33v1.652zm4.726 2.492h-2.534v-4.938h2.488v.809h-1.648v1.245h1.449v.784h-1.45V50.7h1.695zM34.29 48.6v-2.033h.84v4.935h-.84v-2.1h-1.33v2.1h-.84v-4.935h.84v2.03zm2.868 2.905H35.87v-4.938h.82v3.78h.126l1.029-3.78h1.288v4.935h-.819v-3.78h-.122zm5.251 0h-2.537v-4.938h2.486v.809h-1.643v1.245h1.449v.784h-1.45V50.7h1.695z"/></g><defs><clipPath id="a"><path fill="#fff" d="M0 0h56v56H0z"/></clipPath></defs></svg>