<svg xmlns="http://www.w3.org/2000/svg" viewBox="0 0 56 56" fill="none"><g clip-path="url(#a)"><mask id="b" width="56" height="56" x="0" y="0" maskUnits="userSpaceOnUse" style="mask-type:luminance"><path fill="#fff" d="M53.375 0H2.625A2.625 2.625 0 0 0 0 2.625v50.75A2.625 2.625 0 0 0 2.625 56h50.75A2.625 2.625 0 0 0 56 53.375V2.625A2.625 2.625 0 0 0 53.375 0"/></mask><g mask="url(#b)"><path fill="#000" d="M56 0H0v56h56z"/></g><path fill="#fff" d="M11.247 9.856a.455.455 0 0 0 .634 0q.484-.483.977-.981l4.525 4.525-2.274 2.28a.397.397 0 0 0 0 .554l.185.193a.397.397 0 0 0 .553 0c.175-.175.464-.473.666-.672l8.395 8.393h.006l6.856 6.87a1.084 1.084 0 0 0 1.523 0l1.093-1.094 2.338 1.356.313-.31 6.667 6.663h1.362L37.72 30.29l.305-.303-1.364-2.345 1.094-1.094a1.083 1.083 0 0 0 0-1.524l-1.627-1.626-1.206 1.206c-.41.408-1.016-.224-.617-.617l1.206-1.207-3.024-3.024-1.206 1.205c-.41.409-1.016-.217-.617-.616l1.24-1.232-.463-.448-8.94-8.899.663-.663a.386.386 0 0 0 0-.55l-.184-.187a.406.406 0 0 0-.442-.087.4.4 0 0 0-.129.09l-2.395 2.4-4.527-4.526c.223-.224.453-.448.672-.672.183-.19.636-.536.266-.907L16.24 4.5a.45.45 0 0 0-.63 0l-4.548 4.554a.457.457 0 0 0 0 .634zm10.962.742 1.82 1.815-.773.767c-.399.399.207 1.024.622.624l.773-.773 3.037 3.024-.784.772c-.4.4.202 1.025.617.624l.784-.784 1.843 1.835-.06.042h-9.651l-3.077-3.075zM.875 42.875v10.5a1.75 1.75 0 0 0 1.75 1.75h50.75a1.75 1.75 0 0 0 1.75-1.75v-10.5z"/><path fill="#000" d="M14.416 48.562v-2.03h.84v4.935h-.84v-2.1h-1.33v2.1h-.84v-4.934h.84v2.03zm4.765 2.905h-.874l-.203-.986h-1.372l-.217.986h-.868l1.169-4.934h1.253zm-1.812-3.92-.462 2.128h1.029l-.441-2.128zm2.2 3.92v-4.934h1.17c.294-.007.585.06.847.196.245.122.445.318.573.56.146.263.218.56.21.86.007.3-.065.597-.21.861-.13.24-.33.435-.573.56a1.8 1.8 0 0 1-.847.196h-.33v1.701zm1.17-2.492a.75.75 0 0 0 .552-.217.96.96 0 0 0 0-1.217.75.75 0 0 0-.552-.218h-.33v1.652zm3.879-.07 1.428 2.562h-.966l-1.126-2.114h-.183v2.114h-.84v-4.934h.84v2.008h.168l1.07-2.008h.897zm3.092 2.632a1.47 1.47 0 0 1-1.278-.644q-.447-.643-.448-1.896 0-1.254.448-1.89a1.58 1.58 0 0 1 2.548 0q.455.645.455 1.89t-.455 1.896a1.46 1.46 0 0 1-1.27.644m0-.784a.69.69 0 0 0 .644-.412q.224-.42.224-1.344t-.224-1.338a.69.69 0 0 0-.644-.413.71.71 0 0 0-.65.413q-.217.414-.218 1.338 0 .924.217 1.344a.7.7 0 0 0 .651.412m3.795.714h-.84v-4.13H29.51v-.804h3.15v.804h-1.155zm2.867 0h-1.288v-4.934h.819v3.78h.125l1.028-3.78h1.288v4.934h-.817v-3.78H35.4zm4.403-2.562 1.433 2.562h-.966l-1.127-2.114h-.182v2.114h-.84v-4.934h.84v2.008h.168l1.071-2.008h.896zm3.001 2.562h-1.288v-4.934h.82v3.78h.132l1.03-3.78h1.287v4.934h-.818v-3.78h-.132z"/></g><defs><clipPath id="a"><path fill="#fff" d="M0 0h56v56H0z"/></clipPath></defs></svg>