<svg xmlns="http://www.w3.org/2000/svg" viewBox="0 0 56 56" fill="none"><g clip-path="url(#a)"><path fill="#000" d="M53.375 0H2.625A2.625 2.625 0 0 0 0 2.625v50.75A2.625 2.625 0 0 0 2.625 56h50.75A2.625 2.625 0 0 0 56 53.375V2.625A2.625 2.625 0 0 0 53.375 0"/><path fill="#fff" d="M14.421 21.905c.287.372.193.784.079 1.232-.136.56-.288 1.196.242 1.932.77 1.073 1.42 1.29 2.537 1.662l.508.171c.878.31 1.168 1.345 1.142 2.273l-.104 3.565c.013 1.543-.196 2.502-.878 4.333 1.19-.319 2.688-1.072 3.194-2.633a.3.3 0 0 1 .027-.056c.141-.23.315-.357.53-.19.702.55 1.043.978 1.27 2.078 1.24-.807 1.861-1.26 2.669-2.341.2-.267.439-.29.607 0 .645 1.12.94 2.255 1.214 3.696 1.12-.796 1.633-1.741 1.997-3.2.112-.442.295-.501.635-.348.849.497 1.504 1.078 2.045 2.016.706-.554 1.111-1.142 1.355-2.172.073-.316.32-.85.64-.183a4.37 4.37 0 0 0 3.047 2.352c-.69-1.137-.972-1.792-1.045-3.024l-.04-1.543c-.051-1.843-.37-4.152 1.085-5.289.245-.186.59-.259.976-.336.626-.133 1.356-.288 1.92-1.001.52-.66.573-1.332.62-1.941.035-.455.062-.873.289-1.224.522-.821 1.743-1.185 2.765-.163-.736-5.342-5.152-7.546-8.102-4.567-.699-6.685-4.083-11.76-8.155-11.76-4.1 0-7.504 5.146-8.169 11.903-3.817-4.316-7.162-1.399-7.952 4.297 1.121-1.107 2.407-.372 3.052.461m15.792-11.2c1.352.957 3.46 4.063 2.941 7.253-.182 1.12-1.689 1.15-2.546.374a1.35 1.35 0 0 1-.455-.896q-.037-.236-.074-.485c-.306-2.002-.691-4.531-.705-5.796-.003-.484.43-.747.841-.453zm-2.016 7.354c1.904 5.101 1.04 11.893.36 12.386-.681.493-.822-2.645-1.023-3.172-.2-.526-.972-.61-1.298-.14-1.856 2.678-.92 5.093-2.028 3.793s-1.008-4.522.313-7.037c.823-1.569 1.882-4.394 2.374-5.824.257-.739 1.04-.733 1.309-.01zm-2.512-7.94c.407-.254.82 0 .817.464-.01 1.17-.381 3.48-.672 5.31q-.031.187-.06.364a1.38 1.38 0 0 1-.506.926c-.848.708-2.304.682-2.502-.383-.564-2.966 1.57-5.834 2.923-6.68M.875 42.875v10.5a1.75 1.75 0 0 0 1.75 1.75h50.75a1.75 1.75 0 0 0 1.75-1.75v-10.5z"/><path fill="#000" d="M21.35 51.537a1.45 1.45 0 0 1-1.266-.644q-.441-.645-.441-1.896c-.012-.469.059-.936.21-1.38.108-.338.313-.636.587-.86.257-.197.573-.3.896-.295.352-.013.696.11.96.343q.386.345.56 1.106l-.812.137a1.4 1.4 0 0 0-.28-.61.52.52 0 0 0-.406-.189q-.358 0-.61.407c-.168.271-.244.714-.244 1.344q0 .895.238 1.33.237.432.609.426a.59.59 0 0 0 .448-.188c.143-.19.239-.41.28-.644l.819.132q-.181.784-.567 1.135c-.27.238-.621.362-.98.346m3.617-.07h-.84v-4.13h-1.154v-.804h3.15v.804h-1.156zm1.58 0v-4.934h1.169c.294-.007.585.06.846.196.245.122.446.318.574.56.145.263.216.56.208.86.007.3-.066.597-.21.861-.131.24-.331.435-.574.56a1.8 1.8 0 0 1-.846.196h-.33v1.701zm1.169-2.492a.75.75 0 0 0 .552-.217.96.96 0 0 0 0-1.217.75.75 0 0 0-.552-.218h-.33v1.652zm5.1 2.492h-.876l-.202-.986h-1.376l-.217.986h-.868l1.17-4.934h1.25zm-1.813-3.92-.462 2.128h1.029l-.442-2.128zm2.8 3.92h-.91l1.063-2.54-.98-2.394h.925l.671 1.764h.127l.679-1.764h.889l-.96 2.358 1.057 2.576h-.923l-.75-1.918h-.125z"/></g><defs><clipPath id="a"><path fill="#fff" d="M0 0h56v56H0z"/></clipPath></defs></svg>