<svg xmlns="http://www.w3.org/2000/svg" viewBox="0 0 56 56" fill="none"><g clip-path="url(#a)"><mask id="b" width="56" height="56" x="0" y="0" maskUnits="userSpaceOnUse" style="mask-type:luminance"><path fill="#fff" d="M53.375 0H2.625A2.625 2.625 0 0 0 0 2.625v50.75A2.625 2.625 0 0 0 2.625 56h50.75A2.625 2.625 0 0 0 56 53.375V2.625A2.625 2.625 0 0 0 53.375 0"/></mask><g mask="url(#b)"><path fill="#000" d="M56 0H0v56h56z"/></g><path fill="#fff" d="m50.347 16.88-7.616-7.797-8.055-.929-3.858.526 3.472.7a2.38 2.38 0 0 1 1.854 2.8l-.664 3.29 4.139 1.513-.324.91-4.007-1.47-.792-.289-.797-.287-4.78-1.751-3.281-.271.21 1.67.087.71 2.327 1.225 3.867 1.251 1.497 1.742.254.298.41.587 1.988 2.807 4.55 2.99 7.503.043 6.8 2.103V18.43zM33.32 26.11c-.061.306-.183.598-.359.856-.17.26-.394.48-.656.648q-.227.158-.49.245l1.903 1.61 1.811-.586-.183-.813-1.916-2.465zM37.075 27.29l.847-.962-2.387-1.584-1.506-2.135-.358 1.75v.009l2.327 2.975z"/><path fill="#fff" d="m10.51 23.065 18.96 3.842 1.218.244q.192.039.386.027a1 1 0 0 0 .224-.018c.197-.044.387-.12.56-.224.333-.233.567-.583.655-.98l.867-4.279-.255-.36-1.547-1.791-3.69-1.203-2.843-1.496-.19-1.53-12.9-2.618.91-4.614 21.505 4.357-.118.598-.372 1.869.815.298.638-3.167c.081-.4 0-.815-.224-1.155a1.57 1.57 0 0 0-.983-.672L28.302 9.01l-2.897-.586-11.457-2.318q-.152-.03-.306-.035-.15-.001-.298.035c-.2.036-.39.112-.56.224a1.6 1.6 0 0 0-.42.42c-.113.17-.193.36-.236.56L9.302 21.245c-.08.402 0 .82.224 1.164a1.53 1.53 0 0 0 .983.656m15.358.672.574-2.826a.39.39 0 0 1 .46-.302l4.088.829a.39.39 0 0 1 .305.308q.017.076 0 .152l-.572 2.826a.39.39 0 0 1-.46.305l-4.088-.828a.387.387 0 0 1-.303-.463zM.875 53.375a1.75 1.75 0 0 0 1.75 1.75h50.75a1.75 1.75 0 0 0 1.75-1.75V35H.876z"/><path fill="#000" d="M51.05 42.796v.805h-2.534v-4.937H51v.805h-1.644v1.248h1.448v.784h-1.448v1.295zM47.776 38.664h-.84V43.6h.84zM46.341 41.128c.145.261.217.556.21.855.007.302-.065.602-.21.868-.132.239-.332.434-.574.56-.263.13-.554.195-.847.189h-1.128v-4.936h.84v1.701h.293c.295-.006.586.062.847.196.242.128.44.326.57.567m-.645.855a.8.8 0 0 0-.217-.603.76.76 0 0 0-.554-.21h-.293v1.625h.293a.76.76 0 0 0 .554-.21.8.8 0 0 0 .217-.602"/><path fill="#fff" d="M45.472 41.38a.94.94 0 0 1 0 1.204.76.76 0 0 1-.554.21h-.293V41.17h.293a.76.76 0 0 1 .554.21"/><path fill="#000" d="M45.422 46.541v4.935h-.82v-3.78h-.125l-1.029 3.78H42.16V46.54h.819v3.78h.126l1.029-3.78zM43.185 42.248a1.255 1.255 0 0 1-.728 1.176c-.26.123-.545.183-.833.176H40.35v-4.936h1.176q.714 0 1.106.357a1.316 1.316 0 0 1 .21 1.624 1.06 1.06 0 0 1-.49.42c.244.077.455.232.602.442.155.215.236.475.231.741m-.86-.097a.61.61 0 0 0-.19-.47.68.68 0 0 0-.504-.181h-.441v1.308h.44a.7.7 0 0 0 .505-.175.64.64 0 0 0 .19-.482m-.14-2.055a.62.62 0 0 0-.176-.46.6.6 0 0 0-.434-.176h-.385v1.252h.385a.575.575 0 0 0 .61-.616"/><path fill="#fff" d="M42.135 41.68a.6.6 0 0 1 .189.47.64.64 0 0 1-.19.483.7.7 0 0 1-.503.174h-.441V41.5h.44a.68.68 0 0 1 .505.182M42.01 39.63a.62.62 0 0 1 .174.462.576.576 0 0 1-.61.616h-.384v-1.252h.385a.6.6 0 0 1 .434.174"/><path fill="#000" d="M41.419 46.541v4.935h-.82v-3.78h-.125l-1.03 3.78h-1.288V46.54h.819v3.78h.127l1.029-3.78zM39.298 39.238q.454.644.454 1.889t-.454 1.897a1.58 1.58 0 0 1-2.548 0q-.455-.645-.455-1.897t.455-1.89a1.583 1.583 0 0 1 2.548 0m-.406 1.889q0-.924-.224-1.336a.69.69 0 0 0-.644-.413.71.71 0 0 0-.652.413q-.217.412-.216 1.336 0 .924.216 1.344a.71.71 0 0 0 .652.413.69.69 0 0 0 .644-.413q.224-.42.224-1.344"/><path fill="#fff" d="M38.668 39.792q.224.412.224 1.336t-.224 1.344a.69.69 0 0 1-.644.414.71.71 0 0 1-.652-.414q-.216-.42-.216-1.344.002-.924.216-1.336a.71.71 0 0 1 .652-.413.69.69 0 0 1 .644.413"/><path fill="#000" d="M37.734 50.67v2.078h-.84v-1.272h-2.66V46.54h.84v4.128H36.3v-4.128h.84v4.128zM35.664 39.425c.145.263.218.56.21.861.006.3-.066.598-.21.861a1.4 1.4 0 0 1-.574.56 1.8 1.8 0 0 1-.848.196h-.328v1.702h-.84v-4.94h1.168a1.8 1.8 0 0 1 .848.2c.244.123.444.319.574.56m-.651.861a.83.83 0 0 0-.217-.61.75.75 0 0 0-.554-.215h-.328v1.644h.328a.75.75 0 0 0 .554-.217.83.83 0 0 0 .217-.606z"/><path fill="#fff" d="M34.796 39.672a.96.96 0 0 1 0 1.218.75.75 0 0 1-.554.217h-.328v-1.652h.328a.75.75 0 0 1 .553.217"/><path fill="#000" d="m32.519 48.912 1.428 2.564h-.967l-1.126-2.116h-.182v2.116h-.84V46.54h.84v2.007h.168l1.07-2.007h.897zM32.614 38.664v.805H30.97v4.132h-.84v-4.937zM29.33 46.54l1.114 4.934h-.876l-.204-.987h-1.37l-.218.987h-.868l1.168-4.935zm-.132 3.142-.44-2.128h-.127l-.462 2.128zM29.386 38.664v4.937h-.818v-3.78h-.126l-1.029 3.78h-1.288v-4.937h.819v3.78h.126l1.028-3.78z"/><path fill="#fff" d="m28.757 47.555.44 2.128H28.17l.461-2.128z"/><path fill="#000" d="M26.768 50.102a1.5 1.5 0 0 1-.19.763 1.3 1.3 0 0 1-.504.504c-.216.118-.46.178-.706.175a1.48 1.48 0 0 1-1.015-.357 1.95 1.95 0 0 1-.56-1.036l.833-.133c.055.208.15.403.28.574a.6.6 0 0 0 .448.168.52.52 0 0 0 .42-.189.83.83 0 0 0 .154-.532.71.71 0 0 0-.19-.518.66.66 0 0 0-.51-.196h-.504v-.77h.406a.63.63 0 0 0 .496-.203.72.72 0 0 0 .183-.504.66.66 0 0 0-.133-.44.41.41 0 0 0-.336-.155.49.49 0 0 0-.371.154 1 1 0 0 0-.23.476l-.785-.126a1.74 1.74 0 0 1 .511-.959 1.37 1.37 0 0 1 1.805.021q.358.343.358.952a1.25 1.25 0 0 1-.658 1.127 1.23 1.23 0 0 1 .798 1.204M25.383 38.664v4.937h-.82v-3.78h-.125l-1.029 3.78h-1.288v-4.937h.819v3.78h.126l1.029-3.78zM23.361 46.541v4.935h-.84v-2.1h-1.33v2.1h-.84V46.54h.84v2.028h1.33v-2.028zM21.35 39.425c.144.263.217.56.21.861.006.3-.066.598-.21.861a1.4 1.4 0 0 1-.574.56 1.8 1.8 0 0 1-.848.196H19.6v1.702h-.84v-4.94h1.168c.295-.005.586.063.848.2.244.123.444.319.573.56m-.652.861a.82.82 0 0 0-.217-.61.75.75 0 0 0-.553-.215H19.6v1.644h.328a.75.75 0 0 0 .553-.217.82.82 0 0 0 .217-.606z"/><path fill="#fff" d="M20.481 39.672a.96.96 0 0 1 0 1.218.75.75 0 0 1-.553.217H19.6v-1.652h.328a.75.75 0 0 1 .553.217"/><path fill="#000" d="m18.85 46.54 1.112 4.934h-.874l-.203-.987h-1.372l-.217.987h-.868l1.169-4.935zm-.133 3.142-.441-2.128h-.126l-.462 2.128z"/><path fill="#fff" d="m18.276 47.555.44 2.128h-1.029l.463-2.128z"/><path fill="#000" d="M18.335 38.664v.805H17.18v4.132h-.84v-4.132h-1.155v-.805zM16.287 47.295c.146.264.219.563.21.865.007.3-.066.598-.21.861-.132.24-.331.434-.574.56a1.8 1.8 0 0 1-.848.196h-.328v1.701h-.84V46.54h1.168c.295-.007.586.06.848.196.245.123.445.319.574.56m-.651.865a.82.82 0 0 0-.217-.608.75.75 0 0 0-.554-.218h-.328v1.652h.328a.75.75 0 0 0 .554-.217.82.82 0 0 0 .217-.61"/><path fill="#fff" d="M15.419 47.548a.96.96 0 0 1 0 1.217.75.75 0 0 1-.554.218h-.328V47.33h.328a.74.74 0 0 1 .553.217"/><path fill="#000" d="m15.12 38.664-1.105 3.795q-.184.63-.456.889c-.2.176-.462.267-.728.252h-.588l-.076-.84h.601a.46.46 0 0 0 .252-.056.4.4 0 0 0 .14-.21l-1.265-3.83h.896l.727 2.464h.091l.652-2.464zM13.273 46.541v.803h-1.155v4.132h-.84v-4.132h-1.155v-.803zM11.398 38.664v4.937h-.84v-2.1h-1.33v2.1h-.84v-4.937h.84v2.032h1.33v-2.032zM7.787 42.248a1.255 1.255 0 0 1-.731 1.176c-.26.123-.546.183-.834.176h-1.27v-4.936h1.175q.715 0 1.107.357a1.316 1.316 0 0 1 .21 1.624 1.06 1.06 0 0 1-.49.42c.243.077.455.232.601.442.155.215.237.475.232.741m-.861-.097a.6.6 0 0 0-.19-.47.68.68 0 0 0-.504-.181h-.44v1.308h.44a.7.7 0 0 0 .504-.175.64.64 0 0 0 .19-.482m-.14-2.055a.62.62 0 0 0-.178-.465.6.6 0 0 0-.435-.175h-.382v1.252h.385a.575.575 0 0 0 .61-.616z"/><path fill="#fff" d="M6.737 41.68a.6.6 0 0 1 .19.47.64.64 0 0 1-.19.483.7.7 0 0 1-.504.174h-.441V41.5h.441a.68.68 0 0 1 .504.182M6.608 39.63a.62.62 0 0 1 .179.466.575.575 0 0 1-.61.616h-.385v-1.257h.385a.6.6 0 0 1 .431.175"/></g><defs><clipPath id="a"><path fill="#fff" d="M0 0h56v56H0z"/></clipPath></defs></svg>