<svg xmlns="http://www.w3.org/2000/svg" viewBox="0 0 56 56" fill="none"><g clip-path="url(#a)"><mask id="b" width="56" height="56" x="0" y="0" maskUnits="userSpaceOnUse" style="mask-type:luminance"><path fill="#fff" d="M53.375 0H2.625A2.625 2.625 0 0 0 0 2.625v50.75A2.625 2.625 0 0 0 2.625 56h50.75A2.625 2.625 0 0 0 56 53.375V2.625A2.625 2.625 0 0 0 53.375 0"/></mask><g mask="url(#b)"><path fill="#000" d="M56 0H0v56h56z"/><mask id="c" width="34" height="27" x="11" y="8" maskUnits="userSpaceOnUse" style="mask-type:luminance"><path fill="#fff" d="M44.968 8.752H11.375v25.734h33.593z"/></mask><g mask="url(#c)"><path fill="#fff" d="M44.912 13.634a.78.78 0 0 0-.46-.46.8.8 0 0 0-.32-.05h-5.398v1.66h3.397l-4.155 4.155a8.7 8.7 0 0 0-5.384-2.01 8.768 8.768 0 1 0-15.51 6.175l-1.953 1.953-2.576-2.585-1.171 1.171 2.583 2.584-2.535 2.536 1.173 1.172 2.536-2.535 2.55 2.535 1.171-1.17-2.536-2.537 1.95-1.951a8.74 8.74 0 0 0 5.358 2.008 8.76 8.76 0 0 0 8.572 8.196h.181a8.785 8.785 0 0 0 6.766-14.378l4.155-4.157v3.403h1.658v-5.388a.8.8 0 0 0-.052-.327m-12.519 19.25h-.127a7.1 7.1 0 0 1-4.916-2.068 7.24 7.24 0 0 1-2.038-4.645 8.77 8.77 0 0 0 7.24-7.51 7.03 7.03 0 0 1 4.889 2.067c2.748 2.815 2.748 7.342 0 10.086-1.431 1.355-3.178 2.07-5.048 2.07m-5.047-12.153a7.4 7.4 0 0 1 3.508-1.904 7.06 7.06 0 0 1-1.95 3.735 7.4 7.4 0 0 1-3.497 1.899 7 7 0 0 1 1.94-3.73m-1.415-.979a8.74 8.74 0 0 0-2.25 4.878 7.2 7.2 0 0 1-2.555-.524 7.1 7.1 0 0 1-2.31-1.537c-1.356-1.43-2.073-3.174-2.073-5.048a7.1 7.1 0 0 1 2.077-5.04l.078-.078c1.411-1.31 3.124-1.998 4.958-1.998a7.32 7.32 0 0 1 5.04 2.07c1.241 1.305 1.94 2.877 2.053 4.568a8.74 8.74 0 0 0-5.018 2.71"/></g></g><path fill="#fff" d="M.875 53.375a1.75 1.75 0 0 0 1.75 1.75h50.75a1.75 1.75 0 0 0 1.75-1.75v-10.5H.876z"/><path fill="#000" d="M23.114 51.537a1.46 1.46 0 0 1-1.267-.644q-.441-.645-.442-1.896c-.01-.47.06-.936.211-1.38.11-.337.313-.636.588-.86.257-.197.573-.3.896-.295.352-.013.695.11.959.343q.385.345.56 1.106l-.812.137a1.4 1.4 0 0 0-.28-.61.52.52 0 0 0-.407-.189q-.356 0-.608.407T22.267 49q0 .895.237 1.33.247.426.61.426a.58.58 0 0 0 .447-.188c.144-.19.24-.41.28-.644l.82.132q-.182.784-.568 1.135c-.269.238-.62.362-.98.346m4.574-.07h-2.535v-4.934h2.485v.804h-1.645v1.246h1.447v.784h-1.447v1.295h1.695zm2.288-2.562 1.428 2.562h-.966l-1.128-2.114h-.181v2.114h-.84v-4.934h.84v2.008h.168l1.07-2.008h.897zm3.072 2.632a1.46 1.46 0 0 1-1.268-.644q-.44-.645-.44-1.896c-.012-.469.059-.936.21-1.38a1.84 1.84 0 0 1 .587-.86c.257-.197.573-.3.896-.295.352-.013.695.11.959.343q.386.345.56 1.106l-.812.137a1.4 1.4 0 0 0-.28-.61.52.52 0 0 0-.405-.189q-.358 0-.61.407T32.2 49q0 .895.239 1.33.238.432.609.426a.59.59 0 0 0 .448-.188c.143-.19.239-.41.28-.644l.819.132q-.183.784-.567 1.135c-.27.238-.621.362-.98.346"/></g><defs><clipPath id="a"><path fill="#fff" d="M0 0h56v56H0z"/></clipPath></defs></svg>