<svg xmlns="http://www.w3.org/2000/svg" viewBox="0 0 24 24" fill="currentColor"><path d="M6.553 3.547h1.55V0H3v8.91l3.553 2.58z"/><path d="M15.333 3.547V0H9.654v3.547h1.063v1.549H8.105v9.406l2.612 1.887v1.89l-4.164-3.011v-1.891L3 10.797v6.313L12.494 24l9.493-6.89V10.8l-3.551 2.58v1.89L14.27 18.28v-1.89l2.612-1.887V5.096H14.27v-1.55zm.405 5.52-1.808 1.5.558 2.299-1.997-1.256-1.995 1.257.56-2.302-1.806-1.5 2.364-.159.88-2.207.88 2.216 2.364.158z"/><path d="m18.433 11.487 3.552-2.58V0h-5.103v3.547h1.551z"/></svg>