<svg xmlns="http://www.w3.org/2000/svg" viewBox="0 0 24 24" fill="currentColor">
<path d="M22.3903 6.00101C19.0778 0.261968 11.74 -1.7037 6.00101 1.60974C0.261968 4.92219 -1.7037 12.26 1.60974 17.999C4.92319 23.738 12.261 25.7037 17.999 22.3903C23.738 19.0768 25.7037 11.739 22.3903 6.00101ZM4.41127 11.955C4.2403 12.6509 4.18931 13.2678 4.18931 13.2678V13.2818C4.18931 13.2818 3.57341 13.3488 2.93252 13.5297C2.32262 13.7017 1.68473 13.9897 1.68473 13.9897C1.68473 13.9897 1.68473 13.9787 1.68473 13.9737C1.68873 12.4729 1.99468 11.3801 2.08566 11.0492V11.0472C2.08566 11.0472 2.65157 10.8742 3.27346 10.7892C3.96135 10.6942 4.71822 10.6692 4.8532 10.6652C4.8562 10.6652 4.8612 10.6652 4.8612 10.6652C4.8612 10.6652 4.60324 11.1771 4.41127 11.957V11.955ZM11.895 15.3504C9.74738 13.9397 7.40177 13.1868 5.16815 13.2208C5.16615 13.2208 5.16315 13.2208 5.16315 13.2208C5.16315 13.2208 5.27313 12.5319 5.4601 11.934C5.66506 11.2781 5.94802 10.7082 5.94802 10.7082C5.94802 10.7082 5.95101 10.7082 5.95301 10.7082C7.8567 10.8572 9.79437 11.4531 11.6381 12.4439C11.6471 12.4489 11.6651 12.4589 11.6651 12.4589C11.6651 12.4589 11.6701 13.1828 11.73 13.9067C11.79 14.6326 11.906 15.3594 11.906 15.3594C11.906 15.3594 11.898 15.3534 11.893 15.3514L11.895 15.3504ZM8.74155 6.36095C7.2498 7.2228 6.08699 8.4266 5.30412 9.80337L5.30212 9.80637C5.30212 9.80637 4.59224 9.79537 3.83237 9.86536C3.14648 9.92835 2.40161 10.0713 2.40161 10.0713C3.30346 7.66973 5.03217 5.53708 7.45676 4.13832C9.87836 2.74055 12.5859 2.30863 15.1145 2.72556C15.1165 2.72556 15.1215 2.72656 15.1215 2.72656C15.1215 2.72656 14.6166 3.28346 14.2086 3.85837C13.7737 4.47226 13.3998 5.10516 13.3998 5.10516H13.4028C13.4098 5.10516 13.4158 5.10516 13.4228 5.10516C13.4258 5.10516 13.4098 5.10516 13.4028 5.10516C11.831 5.10116 10.2203 5.50609 8.73955 6.36095H8.74155ZM14.9275 13.5997C14.9275 13.6047 14.9275 13.6147 14.9275 13.6147C14.9275 13.6147 14.3556 13.1508 13.7567 12.7359C13.1598 12.3219 12.5359 11.956 12.5359 11.956C12.5359 11.956 12.5359 11.935 12.5359 11.925C12.5999 9.82836 13.0538 7.8477 13.8807 6.12099L13.8847 6.11299C13.8847 6.11299 14.3386 6.10499 15.1815 6.29396C15.9493 6.46593 16.4473 6.70589 16.4473 6.70589C16.4473 6.70589 16.4423 6.71389 16.4403 6.71789C15.2974 8.63356 14.7785 11.0382 14.9265 13.5997H14.9275ZM16.5272 19.8697C16.5272 19.8697 16.5082 19.8437 16.4992 19.8307C15.5094 18.4569 14.2796 17.1691 12.9248 16.1163L12.9068 16.1073C12.9068 16.1073 12.7499 15.3704 12.6589 14.6426C12.5549 13.8057 12.5169 12.9638 12.5169 12.9638C12.5169 12.9638 12.5259 12.9558 12.5269 12.9568C12.7879 13.1178 13.7897 13.7147 15.0595 14.8455C15.0635 14.8495 15.0735 14.8575 15.0735 14.8575C15.0735 14.8575 15.2435 16.3533 15.8154 17.986C16.0563 18.6719 16.2643 19.2458 16.5422 19.8177C16.5482 19.8297 16.5602 19.8547 16.5602 19.8547L16.5272 19.8697ZM17.811 4.95618C17.3691 5.38811 17.0232 5.88303 17.0232 5.88303L17.0132 5.87903C17.0132 5.87903 16.3333 5.57208 15.6744 5.38611C15.0305 5.20414 14.4066 5.14315 14.4066 5.14315C14.4066 5.14315 14.4096 5.13815 14.4116 5.13515C14.4836 5.01217 14.7865 4.50526 15.1765 4.00434C15.5934 3.46943 16.1263 2.94052 16.1263 2.94052C16.1263 2.94052 16.1453 2.94552 16.1543 2.94752C17.1041 3.19748 18.018 3.57041 18.8698 4.06033C18.8738 4.06233 18.8818 4.06733 18.8818 4.06733C18.8818 4.06733 18.2969 4.48226 17.811 4.95618Z" />
</svg>