<svg xmlns="http://www.w3.org/2000/svg" viewBox="0 0 24 24" fill="currentColor"><path d="M11.233 5.708A.76.76 0 0 1 12 4.94c.43 0 .777.347.767.768l-.114 4.715 3.254-3.415a.76.76 0 0 1 1.085 0 .76.76 0 0 1 0 1.085l-3.415 3.254 4.715-.114c.421-.01.767.336.767.767 0 .43-.346.777-.767.767l-4.715-.114 3.415 3.254c.305.29.305.78 0 1.085a.76.76 0 0 1-1.085 0l-3.254-3.415.114 4.715a.76.76 0 0 1-.767.767.76.76 0 0 1-.767-.767l.114-4.715-3.254 3.415a.76.76 0 0 1-1.085 0 .76.76 0 0 1 0-1.085l3.414-3.254-4.714.114A.76.76 0 0 1 4.94 12c0-.43.347-.777.768-.767l4.715.114-3.415-3.254a.76.76 0 0 1 0-1.085.76.76 0 0 1 1.085 0l3.254 3.414z"/></svg>