<svg xmlns="http://www.w3.org/2000/svg" viewBox="0 0 24 24" fill="currentColor"><path fill-rule="evenodd" d="M7.08 1.92a.96.96 0 0 0-.96.96v1.2h-.48A3.84 3.84 0 0 0 1.8 7.92v10.32a3.84 3.84 0 0 0 3.84 3.84h12.72a3.84 3.84 0 0 0 3.84-3.84V7.92a3.84 3.84 0 0 0-3.84-3.84h-.451v-1.2a.96.96 0 0 0-1.92 0v1.2H13.08v-1.2a.96.96 0 0 0-1.92 0v1.2H8.04v-1.2a.96.96 0 0 0-.96-.96M11.16 6H8.04a.96.96 0 1 1-1.92 0h-.48c-1.06 0-1.92.86-1.92 1.92v2.16l16.56.002V7.92c0-1.06-.86-1.92-1.92-1.92h-.451a.96.96 0 1 1-1.92 0H13.08a.96.96 0 1 1-1.92 0m-7.44 6v6.24c0 1.06.86 1.92 1.92 1.92h12.72c1.06 0 1.92-.86 1.92-1.92v-6.238z" clip-rule="evenodd"/></svg>