<svg xmlns="http://www.w3.org/2000/svg" viewBox="0 0 24 24" fill="currentColor"><path d="M13.172 1.92A2.37 2.37 0 0 0 10.8 4.292V6h3.53a4.15 4.15 0 0 1 4.15 4.15v6a4.15 4.15 0 0 1-4.15 4.151h-.653a2.98 2.98 0 0 1-.187 1.779h6.204a2.37 2.37 0 0 0 2.372-2.372l.014-15.416a2.37 2.37 0 0 0-2.372-2.372z"/><path d="M14.188 7.92H4.292a2.37 2.37 0 0 0-2.372 2.372v5.816a2.37 2.37 0 0 0 2.372 2.372h3.854v1.2H7.92a1.2 1.2 0 0 0-1.2 1.207v.007c0 .655.53 1.186 1.186 1.186h2.908c.655 0 1.186-.53 1.186-1.186v-.014a1.2 1.2 0 0 0-1.2-1.2h-.24v-1.2h3.628c1.31 0 2.372-1.02 2.372-2.33v-5.858a2.37 2.37 0 0 0-2.372-2.372"/></svg>