<svg xmlns="http://www.w3.org/2000/svg" viewBox="0 0 24 24" fill="currentColor"><path fill-rule="evenodd" d="M1.92 7.86a3.3 3.3 0 0 1 3.3-3.3h13.56a3.3 3.3 0 0 1 3.3 3.3v8.28a3.3 3.3 0 0 1-3.3 3.3H5.22a3.3 3.3 0 0 1-3.3-3.3zm1.936-.212a1.4 1.4 0 0 0-.016.212v8.112l4.793-3.532zM5.402 6.48l5.332 5.348.429.327a1.38 1.38 0 0 0 1.674 0l.429-.327 5.332-5.348zm14.742 1.168-4.766 4.781 4.782 3.42V7.86q0-.108-.016-.212m-1.012 9.827-5.215-3.73a3.3 3.3 0 0 1-3.825.006l-5.093 3.751q.109.018.22.018h13.56q.183 0 .352-.045" clip-rule="evenodd"/></svg>