<svg xmlns="http://www.w3.org/2000/svg" viewBox="0 0 24 24" fill="currentColor"><path d="M4.095 4.8h15.81c.677 0 .98.85.455 1.278l-7.45 6.08a1.44 1.44 0 0 1-1.82 0l-7.45-6.08C3.115 5.65 3.418 4.8 4.095 4.8"/><path d="M1.92 17.35V8.644a.72.72 0 0 1 1.166-.565l4.974 3.929-4.32 4.32a.96.96 0 0 0 1.357 1.358l4.48-4.48 1.008.797c.83.655 2 .655 2.83 0l.855-.676 4.358 4.36a.96.96 0 1 0 1.358-1.359l-4.2-4.199 5.128-4.05a.72.72 0 0 1 1.166.565v8.706a2.28 2.28 0 0 1-2.282 2.282H4.202A2.28 2.28 0 0 1 1.92 17.35"/></svg>