<svg xmlns="http://www.w3.org/2000/svg" width="18" height="20" viewBox="0 0 18 20" fill="none">
<path d="M8.66555 17.9272C7.67276 18.9751 6.47663 19.499 5.07718 19.499C3.67785 19.4992 2.48186 18.9753 1.48919 17.9276C0.496529 16.8798 0.000131824 15.6173 1.04902e-07 14.14C-0.000263427 12.6626 0.496003 11.3999 1.4888 10.352L3.87598 7.83235C4.04399 7.65501 4.24165 7.56641 4.46897 7.56655C4.69641 7.56655 4.8942 7.65528 5.06235 7.83276C5.23036 8.0101 5.31431 8.21874 5.31417 8.45867C5.31404 8.69832 5.22997 8.90682 5.06196 9.08416L2.67379 11.6049C2.01043 12.3051 1.67882 13.15 1.67895 14.1396C1.67895 15.1294 2.01089 15.9746 2.67478 16.6754C3.33866 17.3761 4.13946 17.7265 5.07718 17.7265C6.01476 17.7266 6.81523 17.3766 7.47859 16.6764L9.86675 14.1557C10.0348 13.9783 10.2324 13.8897 10.4597 13.8899C10.6872 13.8899 10.8849 13.9785 11.0529 14.1559C11.2211 14.3334 11.305 14.542 11.3048 14.7818C11.3048 15.0216 11.2207 15.2301 11.0527 15.4075L8.66555 17.9272ZM7.22103 13.1286C7.05302 13.3059 6.85535 13.3945 6.62804 13.3944C6.4006 13.3944 6.20287 13.3057 6.03485 13.1283C5.86671 12.9509 5.78277 12.7422 5.78303 12.5024C5.78303 12.2626 5.86704 12.0541 6.03505 11.8767L10.779 6.86949C10.947 6.69215 11.1446 6.60355 11.372 6.60369C11.5994 6.60369 11.7971 6.69236 11.9651 6.8697C12.1333 7.04718 12.2172 7.25582 12.217 7.49561C12.217 7.7354 12.133 7.94397 11.9649 8.12131L7.22103 13.1286ZM14.124 12.1657C13.956 12.343 13.7583 12.4316 13.531 12.4315C13.3036 12.4315 13.1058 12.3428 12.9376 12.1653C12.7696 11.9879 12.6857 11.7793 12.6858 11.5394C12.686 11.2997 12.77 11.0912 12.938 10.9139L15.3262 8.39316C15.9896 7.69298 16.3212 6.84807 16.321 5.85845C16.321 4.86868 15.9891 4.02343 15.3252 3.32269C14.6613 2.62196 13.8605 2.27159 12.9228 2.27159C11.9852 2.27145 11.1848 2.62147 10.5214 3.32165L8.13325 5.84238C7.96523 6.01972 7.76757 6.10832 7.54026 6.10818C7.31281 6.10818 7.11508 6.01951 6.94707 5.84217C6.77892 5.6647 6.69498 5.45606 6.69525 5.21627C6.69525 4.97648 6.77925 4.76791 6.94727 4.59057L9.33445 2.07088C10.3272 1.02298 11.5234 0.499023 12.9228 0.499023C14.3221 0.498884 15.5181 1.0227 16.5108 2.07047C17.5035 3.11823 17.9999 4.38075 18 5.85803C18.0003 7.33545 17.504 8.59811 16.5112 9.64601L14.124 12.1657Z" fill="currentColor"/>
</svg>