<svg xmlns="http://www.w3.org/2000/svg" viewBox="0 0 24 24" fill="currentColor"><path d="m18.616 7.293-3.985 6.902.633 2.364a.82.82 0 0 1-.084.64l-.236.408a.8.8 0 0 1-.506.393.8.8 0 0 1-.64-.088l-3.617-2.089-2.977 5.158a.8.8 0 0 1-.502.392.8.8 0 0 1-.63-.089.8.8 0 0 1-.393-.501.8.8 0 0 1 .089-.63l2.978-5.159-3.617-2.088a.8.8 0 0 1-.397-.51.8.8 0 0 1 .087-.634l.237-.409a.85.85 0 0 1 .511-.393l2.364-.633 3.985-6.903-.24-.138a.8.8 0 0 1-.392-.502.8.8 0 0 1 .09-.63.8.8 0 0 1 .501-.393.8.8 0 0 1 .63.09l7.18 4.144a.8.8 0 0 1 .392.502.8.8 0 0 1-.09.63.8.8 0 0 1-.5.393.8.8 0 0 1-.631-.09z"/></svg>