<svg xmlns="http://www.w3.org/2000/svg" viewBox="0 0 24 24" fill="currentColor"><path d="m4.736 17.362 2.547 2.546a.77.77 0 0 1 .24.572.81.81 0 0 1-.257.583.86.86 0 0 1-.578.247.77.77 0 0 1-.578-.247l-3.83-3.83A.9.9 0 0 1 2 16.54q0-.198.063-.37a.9.9 0 0 1 .217-.324l3.83-3.83a.79.79 0 0 1 .564-.233.82.82 0 0 1 .592.233q.255.255.255.586t-.255.586l-2.53 2.53h15.759q.35 0 .586.236a.8.8 0 0 1 .236.586.8.8 0 0 1-.236.585.8.8 0 0 1-.586.237zm14.528-8.77H3.505a.8.8 0 0 1-.586-.236.8.8 0 0 1-.236-.585q0-.35.236-.586a.8.8 0 0 1 .586-.236h15.76l-2.547-2.547a.77.77 0 0 1-.242-.572.81.81 0 0 1 .259-.583.86.86 0 0 1 .577-.247.77.77 0 0 1 .578.247l3.83 3.83a.9.9 0 0 1 .28.694q0 .198-.063.368a.9.9 0 0 1-.217.325l-3.83 3.83a.79.79 0 0 1-.564.233.82.82 0 0 1-.591-.233.8.8 0 0 1-.256-.586q0-.33.256-.586z"/></svg>