<svg xmlns="http://www.w3.org/2000/svg" viewBox="0 0 24 24" fill="currentColor"><path d="m19.235 21.342-3.52-3.488a9 9 0 0 1-1.818.494A12 12 0 0 1 12 18.5q-3.158 0-5.784-1.68a12.3 12.3 0 0 1-4.162-4.428 1.74 1.74 0 0 1-.178-1.35q.063-.229.187-.434.6-.995 1.272-1.924A8.4 8.4 0 0 1 4.9 7.038L2.642 4.765a.72.72 0 0 1-.212-.514.72.72 0 0 1 .228-.54.72.72 0 0 1 .527-.217q.31 0 .526.217l16.577 16.577q.208.208.22.515a.7.7 0 0 1-.22.54.72.72 0 0 1-.526.216.72.72 0 0 1-.527-.217M12 15.577q.333 0 .636-.04.303-.039.591-.172l-5.092-5.092q-.123.289-.168.591-.045.303-.044.636 0 1.702 1.187 2.89 1.188 1.187 2.89 1.187M12 4.5q3.167 0 5.81 1.687a12.2 12.2 0 0 1 4.17 4.455 1.68 1.68 0 0 1 .186 1.307 1.5 1.5 0 0 1-.17.409 13 13 0 0 1-1.019 1.634q-.564.768-1.26 1.444a.93.93 0 0 1-.738.287 1.1 1.1 0 0 1-.739-.337L16.144 13.3a.76.76 0 0 1-.205-.36.9.9 0 0 1 .005-.425 3.6 3.6 0 0 0 .133-1.015q0-1.702-1.188-2.89Q13.703 7.423 12 7.423a3.4 3.4 0 0 0-.996.142.86.86 0 0 1-.442.016.76.76 0 0 1-.377-.206l-.931-.93q-.428-.428-.284-.995.144-.568.72-.723a11 11 0 0 1 1.143-.171A12 12 0 0 1 12 4.5m1.937 5.111q.304.336.5.751.198.417.248.87.024.181-.136.252-.16.07-.301-.07l-2.146-2.137q-.14-.14-.062-.301a.27.27 0 0 1 .258-.16q.485.039.894.243t.745.552"/></svg>