<svg xmlns="http://www.w3.org/2000/svg" viewBox="0 0 24 24" fill="currentColor"><path d="M12.002 15.52q1.7 0 2.887-1.19t1.188-2.89-1.19-2.887-2.89-1.187-2.887 1.19-1.187 2.89 1.19 2.886 2.889 1.188M12 14.143q-1.125 0-1.913-.788a2.6 2.6 0 0 1-.787-1.912q0-1.125.787-1.913A2.6 2.6 0 0 1 12 8.743q1.125 0 1.912.787.788.788.788 1.913t-.788 1.912a2.6 2.6 0 0 1-1.912.788m0 4.3q-3.157 0-5.776-1.685a12.6 12.6 0 0 1-4.18-4.432 1.8 1.8 0 0 1-.183-.435 1.76 1.76 0 0 1 .183-1.33 12.6 12.6 0 0 1 4.18-4.433Q8.84 4.442 12 4.443q3.157 0 5.776 1.685a12.6 12.6 0 0 1 4.18 4.432q.125.216.182.434a1.76 1.76 0 0 1-.183 1.332 12.6 12.6 0 0 1-4.18 4.432Q15.159 18.443 12 18.443"/></svg>