<svg xmlns="http://www.w3.org/2000/svg" viewBox="0 0 24 24" fill="none"><path fill="#5756CE" d="M5.239 14.313a.77.77 0 0 0-1.09-.011l-1.512 1.482a.28.28 0 0 0-.065.314.29.29 0 0 0 .265.18l2.66.008a.38.38 0 0 0 .377-.37v-.033a2.23 2.23 0 0 0-.635-1.57M3.175 13.952a.77.77 0 0 0-.763-.779l-2.116-.02a.28.28 0 0 0-.267.174.28.28 0 0 0 .06.314l1.874 1.886a.38.38 0 0 0 .553-.019c.415-.405.654-.974.659-1.556M1.973 12.238a.77.77 0 0 0 .012-1.089L.502 9.636a.28.28 0 0 0-.313-.064.29.29 0 0 0-.18.265L0 12.499c0 .205.166.375.37.377h.033a2.25 2.25 0 0 0 1.57-.638M4.045 8.973a.77.77 0 0 0 1.089.012l1.513-1.483a.28.28 0 0 0 .064-.313.29.29 0 0 0-.265-.18L3.786 7a.38.38 0 0 0-.377.372v.032a2.24 2.24 0 0 0 .636 1.57M6.108 9.335a.77.77 0 0 0 .763.778l2.116.02c.143.003.23-.09.267-.174a.28.28 0 0 0-.06-.314L7.32 7.755a.38.38 0 0 0-.53-.005l-.023.023a2.25 2.25 0 0 0-.659 1.562M7.312 11.048a.77.77 0 0 0-.011 1.09l1.483 1.512a.28.28 0 0 0 .313.064.29.29 0 0 0 .18-.264l.009-2.66a.38.38 0 0 0-.371-.378h-.032a2.22 2.22 0 0 0-1.57.636M6.951 13.109a.77.77 0 0 0-.778.762l-.02 2.116c-.003.143.09.23.174.267.086.037.215.04.314-.06l1.885-1.874a.38.38 0 0 0-.018-.553 2.24 2.24 0 0 0-1.557-.658M2.865 8.333v-.159a.71.71 0 0 0-.693-.714.706.706 0 0 0-.716.705v.17a.61.61 0 0 0-.392.569v.398c0 .337.272.608.608.608h.205c.037 0 .07-.027.079-.064l.09-.61a.04.04 0 0 0-.019-.042.26.26 0 0 1 .101-.481.262.262 0 0 1 .293.258c0 .094-.05.177-.127.223a.04.04 0 0 0-.018.042l.09.61a.08.08 0 0 0 .078.064h.205a.607.607 0 0 0 .608-.608v-.4a.61.61 0 0 0-.392-.569m-.156-.037q-.032-.003-.06-.002h-.974q-.032 0-.06.002v-.133c0-.307.25-.553.557-.548.3.004.537.257.537.557z"/><path fill="#29374A" d="M13.431 9.31c0 .423-.313.72-.748.72-.412 0-.753-.267-.753-.796v-.258c0-.51.246-.878.702-.965l.675-.083V8.2l-.61.073c-.277.056-.445.233-.461.599.106-.21.308-.265.497-.265.403-.002.698.283.698.703m-.308-.003a.42.42 0 0 0-.438-.437.42.42 0 0 0-.44.437c0 .26.182.44.44.44.253 0 .438-.18.438-.44M15.076 9.392q0-.067-.003-.13c-.034-.466-.329-.722-.73-.722-.425 0-.732.323-.732.749 0 .447.32.744.756.744.322 0 .578-.19.665-.431h-.306a.43.43 0 0 1-.357.168c-.237 0-.421-.154-.44-.378zm-1.147-.239c.016-.205.189-.355.415-.355.234 0 .398.152.407.355zM15.181 9.733c.11-.005.226-.067.226-.295v-.866h1.126v1.435h-.313V8.856h-.507v.59c0 .398-.235.577-.536.57zM17.39 9.24l.686-.668h-.364l-.38.369-.214.207v-.576h-.313v1.435h.313v-.675l.212.237.384.438h.364z"/><path fill="#29374A" d="m19.326 8.57-.039.214a.7.7 0 0 0-.525-.241h-.016a.69.69 0 0 0-.497.198l-.019.018q-.005.006-.009.011a.77.77 0 0 0-.182.516v.005c0 .205.064.384.182.516q.004.005.01.011.006.01.018.019c.12.124.29.198.497.198h.016c.191 0 .403-.09.525-.242v.214h.318V8.57zm-.5 1.177a.444.444 0 0 1-.465-.458c0-.268.194-.459.466-.459.267 0 .458.198.458.459 0 .26-.191.458-.458.458M19.877 8.57v2.0819999999999994h.318v-.86c.122.15.334.243.525.243h.016a.69.69 0 0 0 .497-.198l.019-.019.009-.011a.77.77 0 0 0 .182-.516v-.005a.76.76 0 0 0-.182-.515q-.004-.006-.01-.012-.006-.01-.018-.018a.67.67 0 0 0-.497-.198h-.016a.7.7 0 0 0-.525.241l-.04-.214zm.32.719c0-.26.191-.459.458-.459.272 0 .465.191.465.459a.444.444 0 0 1-.465.458.445.445 0 0 1-.458-.458M23.807 9.111v.896h-.315v-.815c0-.26-.134-.375-.311-.375-.182 0-.32.122-.32.375v.815h-.316v-.815c0-.26-.136-.375-.306-.375-.186 0-.325.122-.325.375v.815h-.317V8.572h.278l.037.208c.083-.148.221-.237.433-.237.194 0 .352.08.438.237.094-.148.25-.237.483-.237.323 0 .541.216.541.568M13.016 11.096h.253v1.407h-.279v-.932l-.764.932h-.258v-1.407h.278v.949zM14.525 11.096h.278v1.407h-.278v-.506h-.707v.506h-.279v-1.407h.279v.606h.707zM23.247 12.501v-1.158h-.451v-.249H24v.249h-.447V12.5zM17.718 11.902q0-.066-.002-.127c-.035-.455-.322-.704-.714-.704-.416 0-.716.315-.716.732 0 .438.313.728.74.728.315 0 .563-.184.65-.422h-.298a.42.42 0 0 1-.35.164c-.233 0-.413-.152-.431-.37zm-1.121-.235c.016-.2.186-.345.408-.345.23 0 .391.15.398.345zM22.705 11.902q0-.067-.003-.127c-.034-.456-.322-.704-.713-.704-.417 0-.716.315-.716.732 0 .438.313.728.739.728.315 0 .564-.184.651-.422h-.3a.42.42 0 0 1-.35.164c-.232 0-.411-.152-.43-.37zm-1.124-.235c.016-.2.186-.345.408-.345.23 0 .391.15.398.345zM20.757 11.096h.279v1.407h-.279v-.506h-.707v.506h-.279v-1.407h.28v.606h.706zM15.46 12.501v-1.158h-.451v-.249h1.204v.249h-.447V12.5zM17.985 11.08v2.0429999999999997h.311v-.843c.12.147.33.237.516.237h.017a.67.67 0 0 0 .487-.196l.016-.016.01-.011a.75.75 0 0 0 .177-.507v-.004c0-.2-.065-.378-.177-.507l-.01-.012q-.007-.009-.016-.016a.66.66 0 0 0-.488-.195h-.016a.7.7 0 0 0-.516.237l-.037-.21zm.316.705c0-.256.186-.45.451-.45s.456.187.456.45a.435.435 0 0 1-.456.449.435.435 0 0 1-.451-.45M13.264 13.615v1.407h-.316v-1.158h-.66v1.158h-.316v-1.407zM20.93 14.053c.332 0 .555.184.555.486 0 .304-.225.486-.555.486h-.578v-1.407h.28v.435zm-.036.707c.17 0 .313-.076.313-.221 0-.148-.14-.226-.313-.226h-.265v.447zM14.755 13.622l-.037.207a.69.69 0 0 0-.513-.234h-.017a.67.67 0 0 0-.485.193l-.016.016-.01.012a.76.76 0 0 0-.177.504v.005c0 .2.065.375.177.504l.01.011q.007.01.016.017c.117.12.283.193.486.193h.016a.69.69 0 0 0 .513-.235v.207h.311V13.62h-.274zm-.488 1.15a.434.434 0 0 1-.454-.45c0-.262.189-.449.454-.449.262 0 .449.194.449.45 0 .255-.189.448-.45.448M15.344 13.601v2.0429999999999997h.31V14.8c.12.147.33.237.516.237h.017a.67.67 0 0 0 .488-.196l.016-.016.009-.011a.75.75 0 0 0 .177-.507v-.004c0-.2-.064-.378-.177-.507q-.004-.006-.01-.011-.007-.01-.015-.016a.66.66 0 0 0-.489-.196h-.016a.7.7 0 0 0-.515.237l-.037-.21zm.313.705c0-.256.186-.449.451-.449s.456.187.456.449a.435.435 0 0 1-.456.449.436.436 0 0 1-.451-.449M18.739 14.764c.11-.004.225-.066.225-.292v-.859h1.117v1.423h-.31v-1.142h-.503v.585c0 .394-.232.573-.532.566zM17.82 13.585c-.433 0-.754.311-.754.733 0 .421.32.732.753.732.436 0 .753-.309.753-.732 0-.42-.317-.733-.753-.733m0 1.184a.435.435 0 0 1-.445-.451c0-.258.189-.452.444-.452.258 0 .445.191.445.452 0 .26-.187.45-.445.45"/></svg>