<svg xmlns="http://www.w3.org/2000/svg" viewBox="0 0 24 24" fill="none"><path fill="#fff" d="M17.149 6H6.85C3.633 6 1 8.633 1 11.85s2.633 5.851 5.851 5.851H17.15c3.218 0 5.851-2.633 5.851-5.851S20.367 6 17.149 6"/><path fill="#3C4043" d="M17.149 6.474c.717-.001 1.426.143 2.086.424a5.43 5.43 0 0 1 2.867 2.867 5.34 5.34 0 0 1 0 4.172 5.43 5.43 0 0 1-2.867 2.867c-.66.28-1.37.425-2.086.424H6.85a5.3 5.3 0 0 1-2.086-.424 5.43 5.43 0 0 1-2.867-2.867 5.34 5.34 0 0 1 0-4.172 5.43 5.43 0 0 1 2.867-2.867c.66-.28 1.37-.425 2.086-.424zm0-.474H6.85C3.633 6 1 8.633 1 11.85s2.633 5.851 5.851 5.851H17.15c3.218 0 5.851-2.633 5.851-5.851S20.367 6 17.149 6"/><path fill="#3C4043" d="M11.491 12.266v1.77h-.561v-4.37h1.489q.566 0 .962.377.404.378.404.921a1.2 1.2 0 0 1-.404.928 1.34 1.34 0 0 1-.962.371h-.928zm0-2.062v1.524h.94a.75.75 0 0 0 .555-.225.74.74 0 0 0 0-1.065.73.73 0 0 0-.556-.231h-.939zM15.252 10.947q.624 0 .983.333.36.334.36.913v1.843h-.535v-.415h-.024q-.347.512-.927.512-.495 0-.828-.293a.94.94 0 0 1-.334-.731q0-.465.352-.737.352-.276.936-.275.5 0 .822.184v-.129a.64.64 0 0 0-.231-.497.8.8 0 0 0-.545-.205.85.85 0 0 0-.743.398l-.494-.31q.408-.593 1.208-.591m-.725 2.17a.44.44 0 0 0 .187.366.7.7 0 0 0 .436.147.9.9 0 0 0 .632-.264.83.83 0 0 0 .278-.617q-.263-.208-.732-.208a.96.96 0 0 0-.57.164q-.232.171-.231.413M19.65 11.044l-1.872 4.306h-.58l.697-1.507-1.235-2.8h.612l.889 2.148h.012l.866-2.148z"/><path fill="#4285F4" d="M9.257 11.91q0-.266-.047-.527H6.855v.965h1.356a1.16 1.16 0 0 1-.503.778v.627h.807c.472-.437.742-1.083.742-1.844"/><path fill="#34A853" d="M7.708 13.126c-.224.151-.514.24-.852.24-.654 0-1.209-.44-1.407-1.034h-.833v.646a2.51 2.51 0 0 0 2.24 1.38c.677 0 1.246-.223 1.66-.606z"/><path fill="#FABB05" d="M5.37 11.852q0-.246.079-.48v-.645h-.833a2.51 2.51 0 0 0 0 2.25l.833-.645a1.5 1.5 0 0 1-.079-.48"/><path fill="#E94235" d="M6.856 10.338c.357-.005.703.13.962.376L8.533 10c-.435-.405-1-.653-1.677-.653a2.51 2.51 0 0 0-2.24 1.38l.833.646c.198-.594.753-1.035 1.407-1.035"/></svg>