<svg xmlns="http://www.w3.org/2000/svg" viewBox="0 0 24 24" fill="currentColor"><path fill-rule="evenodd" d="M17.138 6.468H6.84C3.635 6.468 1 9.103 1 12.33c0 3.206 2.635 5.84 5.84 5.84h10.298c3.227 0 5.862-2.634 5.862-5.84 0-3.227-2.635-5.862-5.862-5.862m-5.642 8.036h-.571v-4.37h1.493q.57 0 .966.374.395.373.395.922 0 .57-.395.922a1.36 1.36 0 0 1-.966.373h-.922zm0-2.305h.922a.77.77 0 0 0 .57-.22.72.72 0 0 0 .22-.527.8.8 0 0 0-.22-.549.77.77 0 0 0-.57-.22h-.922zm4.741-.44q-.373-.35-.988-.35-.791 0-1.207.592l.505.308a.83.83 0 0 1 .724-.396q.33 0 .55.22a.6.6 0 0 1 .24.483v.132q-.329-.176-.834-.176-.57 0-.922.263a.92.92 0 0 0-.351.747q0 .44.33.724.329.307.812.286.593.021.944-.505h.022v.417h.527V12.66q0-.57-.352-.9m-1.514 2.196a.46.46 0 0 1-.198-.373q0-.242.241-.417a.93.93 0 0 1 .55-.154q.482 0 .746.198a.84.84 0 0 1-.286.636.87.87 0 0 1-.636.264.6.6 0 0 1-.418-.154m4.918-2.437-1.867 4.303h-.57l.68-1.514-1.23-2.789h.615l.879 2.152h.022l.856-2.152zm-12.778-.703c.351 0 .702.11.944.374l.725-.725a2.46 2.46 0 0 0-1.67-.637c-.987 0-1.843.55-2.239 1.362a2.5 2.5 0 0 0-.263 1.141q0 .592.263 1.12a2.49 2.49 0 0 0 2.24 1.383c.659 0 1.23-.22 1.647-.614.483-.44.746-1.076.746-1.845a3 3 0 0 0-.044-.527H6.863v.966h1.34c-.045.33-.22.593-.506.79-.22.155-.505.242-.834.242-.659 0-1.208-.46-1.405-1.053a1.2 1.2 0 0 1-.088-.462q0-.263.088-.483a1.49 1.49 0 0 1 1.405-1.032" clip-rule="evenodd"/></svg>