<svg xmlns="http://www.w3.org/2000/svg" viewBox="0 0 24 24" fill="none"><path fill="#878B8F" d="M2.988 19.576h-.294v-3.368h.294zm2.14-3.368c.258-.004.514.036.758.118.212.071.407.186.572.337.159.148.283.329.363.53.17.45.17.947 0 1.398-.08.2-.204.382-.363.53-.165.15-.36.265-.572.336-.244.082-.5.122-.758.119H3.9v-3.368zm-.933.28v2.809h.933c.22.003.44-.03.65-.1.175-.06.335-.156.47-.283a1.2 1.2 0 0 0 .294-.443 1.75 1.75 0 0 0 0-1.16 1.2 1.2 0 0 0-.29-.443 1.3 1.3 0 0 0-.471-.283 2 2 0 0 0-.65-.099zm6.167-.319a1.8 1.8 0 0 1 .798.187q.173.089.32.217.142.128.243.29l-.245.163a1.2 1.2 0 0 0-.205-.235 1.33 1.33 0 0 0-.911-.334 1.5 1.5 0 0 0-.56.103 1.33 1.33 0 0 0-.75.748 1.63 1.63 0 0 0 0 1.177 1.339 1.339 0 0 0 .75.748c.287.11.6.133.899.065.211-.048.407-.149.57-.293q.117-.107.205-.24l.24.175q-.106.158-.249.284a1.6 1.6 0 0 1-.318.214q-.178.09-.373.136a1.9 1.9 0 0 1-1.098-.079 1.61 1.61 0 0 1-.91-.898 1.92 1.92 0 0 1 0-1.391 1.6 1.6 0 0 1 .91-.9c.218-.086.45-.13.684-.128zm2.264 1.535a.86.86 0 0 1 .574-.404q.113-.025.23-.025.2-.002.388.063.17.06.302.182a.8.8 0 0 1 .194.287c.047.12.07.25.07.379v1.388h-.275v-1.303a1 1 0 0 0-.048-.307.6.6 0 0 0-.142-.235.6.6 0 0 0-.23-.146.9.9 0 0 0-.604.004.72.72 0 0 0-.456.696v1.29h-.277v-3.46h.274zm3.389-.428a1.02 1.02 0 0 1 .976.686q.084.226.084.466v.06q.001.027-.004.053h-1.898q.011.184.088.352a.801.801 0 0 0 .462.423 1 1 0 0 0 .326.055c.147.003.292-.027.426-.086a1.2 1.2 0 0 0 .339-.235l.146.187a1.3 1.3 0 0 1-.448.296q-.114.044-.236.06-.12.017-.243.017a1.2 1.2 0 0 1-.456-.085 1.06 1.06 0 0 1-.596-.608 1.36 1.36 0 0 1 0-.941q.08-.209.235-.371.153-.157.356-.242c.14-.058.292-.087.444-.086zm-.005.243a.81.81 0 0 0-.565.222.8.8 0 0 0-.176.25 1 1 0 0 0-.088.313h1.618a1 1 0 0 0-.078-.32.8.8 0 0 0-.17-.249.75.75 0 0 0-.537-.219zm2.643-.243c.161-.002.322.029.47.09.141.059.267.148.368.262l-.178.185a1 1 0 0 0-.298-.206.9.9 0 0 0-.366-.074.87.87 0 0 0-.623.26.9.9 0 0 0-.184.288 1.03 1.03 0 0 0 0 .729.84.84 0 0 0 .462.476q.166.07.345.068a.9.9 0 0 0 .371-.079q.168-.075.3-.203l.17.187a1 1 0 0 1-.367.261c-.3.12-.635.12-.935 0a1.1 1.1 0 0 1-.605-.614 1.3 1.3 0 0 1 0-.928 1.09 1.09 0 0 1 .605-.616c.15-.06.31-.09.47-.088zm1.66.99h.368l.952-.954h.346l-1.078 1.068 1.098 1.196h-.348l-.97-1.061h-.367v1.06h-.276v-3.463h.275zM10.867 10.573v-.09h.036v-.02h-.093v.02h.036v.09zm.181 0v-.11h-.029l-.033.08-.033-.08h-.028v.11h.02v-.083l.03.072h.022l.03-.072v.083zM7.774 6.6H5.315v4.418h2.459z"/><path fill="#373C42" d="M5.472 8.813a2.8 2.8 0 0 1 1.073-2.212 2.81 2.81 0 1 0 0 4.417 2.8 2.8 0 0 1-1.073-2.205"/><path fill="#F1F1F1" d="M11.09 8.813a2.808 2.808 0 0 1-4.544 2.205 2.81 2.81 0 0 0 0-4.417 2.81 2.81 0 0 1 4.545 2.212"/></svg>