<svg xmlns="http://www.w3.org/2000/svg" viewBox="0 0 24 24" fill="currentColor"><path d="M9.112 7.814 5.97 15.311H3.92L2.373 9.329c-.093-.369-.175-.504-.46-.66C1.445 8.418.676 8.18 0 8.033l.046-.218h3.3c.42 0 .799.28.894.765l.817 4.337 2.018-5.102zm8.032 5.05c.008-1.98-2.736-2.088-2.717-2.972.006-.27.262-.555.822-.628.278-.037 1.044-.064 1.913.335l.34-1.59a5.2 5.2 0 0 0-1.813-.332c-1.917 0-3.266 1.02-3.278 2.478-.012 1.08.963 1.682 1.698 2.04.756.367 1.01.604 1.007.932-.006.503-.603.725-1.162.734-.975.015-1.54-.264-1.99-.474l-.352 1.643c.453.208 1.29.389 2.156.398 2.038 0 3.37-1.006 3.377-2.565m5.061 2.448H24l-1.567-7.497h-1.655a.88.88 0 0 0-.825.55l-2.91 6.947h2.037l.404-1.12h2.488zm-2.163-2.656 1.02-2.815.588 2.815zm-8.16-4.84-1.604 7.496H8.34l1.605-7.497z"/></svg>