<svg xmlns="http://www.w3.org/2000/svg" viewBox="0 0 24 24" fill="currentColor"><path d="M13.447 16.56a1.44 1.44 0 1 1-2.88 0 1.44 1.44 0 0 1 2.88 0M12.007 14.16c.795 0 1.152-.677 1.152-1.082l.288-4.045c0-.747-.645-1.353-1.44-1.353-.796 0-1.44.606-1.44 1.353l.288 4.045c0 .406.356 1.082 1.152 1.082"/><path fill-rule="evenodd" d="M20.546 20.629c-.67.495-1.429.624-2.006.678-.566.053-1.266.053-2.026.053H7.487c-.761 0-1.46 0-2.026-.053-.578-.054-1.337-.183-2.006-.678a3.79 3.79 0 0 1-1.512-2.657c-.084-.817.177-1.533.418-2.065.237-.523.586-1.138.968-1.811l4.51-7.95c.38-.672.729-1.286 1.054-1.756.33-.475.815-1.075 1.571-1.418a3.72 3.72 0 0 1 3.072 0c.756.343 1.24.943 1.57 1.418.327.47.676 1.086 1.058 1.759l4.507 7.946c.383.674.732 1.29.968 1.812.241.532.503 1.248.418 2.065a3.79 3.79 0 0 1-1.511 2.657m-4.113-1.189c1.66 0 2.49 0 2.97-.355.42-.31.69-.786.745-1.31.061-.601-.354-1.334-1.185-2.8l-4.43-7.811c-.832-1.465-1.247-2.197-1.79-2.443a1.8 1.8 0 0 0-1.486 0c-.543.246-.958.978-1.788 2.442l-4.432 7.813c-.83 1.465-1.246 2.198-1.184 2.798.054.525.324 1.001.743 1.31.48.356 1.31.356 2.971.356z" clip-rule="evenodd"/></svg>