<svg xmlns="http://www.w3.org/2000/svg" viewBox="0 0 24 24" fill="currentColor"><path fill-rule="evenodd" d="M20.609 15.648 15.13 6.072c-1.027-1.796-1.54-2.694-2.211-2.995a2.24 2.24 0 0 0-1.838 0c-.67.301-1.184 1.199-2.21 2.993l-5.48 9.578c-1.027 1.796-1.54 2.694-1.464 3.43.067.643.402 1.227.92 1.607.593.435 1.62.435 3.673.435h10.96c2.053 0 3.08 0 3.673-.435.518-.38.853-.964.92-1.607.076-.736-.437-1.634-1.464-3.43m-6.93 2.112a1.68 1.68 0 1 1-3.36 0 1.68 1.68 0 0 1 3.36 0M12 14.64c.929 0 1.345-.877 1.345-1.403l.336-5.243c0-.969-.752-1.754-1.68-1.754s-1.68.785-1.68 1.754l.336 5.243c0 .526.416 1.403 1.344 1.403" clip-rule="evenodd"/></svg>