<svg xmlns="http://www.w3.org/2000/svg" viewBox="0 0 24 24" fill="currentColor"><path d="M6.24 2.994a1.074 1.074 0 1 1 2.149 0v.846H10.8v-.846a1.074 1.074 0 1 1 2.148 0v.846H15.6v-.846a1.074 1.074 0 1 1 2.149 0v.846h1.45a2.88 2.88 0 0 1 2.88 2.88v1.517a.643.643 0 0 1-.643.643H2.563a.643.643 0 0 1-.643-.643V6.72A2.88 2.88 0 0 1 4.8 3.84h1.44z"/><path fill-rule="evenodd" d="M2.563 10.56a.643.643 0 0 0-.643.643V19.2a2.88 2.88 0 0 0 2.88 2.88h14.4a2.88 2.88 0 0 0 2.88-2.88v-7.997a.643.643 0 0 0-.643-.643zm13.774 2.401a1.372 1.372 0 0 1 0 2.74l-10.647.01c-.757 0-1.37-.612-1.37-1.369 0-.756.613-1.37 1.37-1.371zM8.95 17.044c.756 0 1.37.612 1.37 1.369s-.614 1.37-1.37 1.371l-3.235.003c-.756.001-1.37-.612-1.37-1.369 0-.756.614-1.37 1.37-1.371z" clip-rule="evenodd"/></svg>