<svg xmlns="http://www.w3.org/2000/svg" viewBox="0 0 24 24" fill="currentColor"><path fill-rule="evenodd" d="M11.76 1.92V7.2a2.88 2.88 0 0 0 2.88 2.88h5.449v9.925c0 1.146-.93 2.075-2.076 2.075H6.155a2.075 2.075 0 0 1-2.075-2.075V3.995c0-1.146.93-2.075 2.075-2.075zm4.8 11.979a.959.959 0 1 1 0 1.92l-9.105.008a.959.959 0 1 1 0-1.92zm-2.645 4.577c0-.53-.43-.96-.96-.96l-5.543.006a.961.961 0 0 0 0 1.92l5.543-.005c.53 0 .96-.43.96-.96" clip-rule="evenodd"/><path d="M13.68 1.92V7.2c0 .53.43.96.96.96h5.449v-.595c0-.546-.216-1.07-.6-1.459l-3.527-3.57a2.08 2.08 0 0 0-1.476-.616z"/></svg>