<svg xmlns="http://www.w3.org/2000/svg" width="20" height="20" viewBox="0 0 20 20" fill="currentColor">
	<path fill-rule="evenodd" clip-rule="evenodd" d="M3.90871 4.02097C5.44029 2.52402 7.53786 1.6001 9.84961 1.6001C13.2003 1.6001 16.0966 3.53895 17.4807 6.35233C18.0373 7.4838 18.3496 8.75662 18.3496 10.1001C18.3496 12.5053 17.3495 14.6784 15.7447 16.2237C14.2172 17.6945 12.1383 18.6001 9.84961 18.6001C9.05931 18.6001 8.29296 18.492 7.56514 18.2894C3.98084 17.2914 1.34961 14.0041 1.34961 10.1001C1.34961 7.71787 2.33065 5.56335 3.90871 4.02097ZM9.84961 3.2001C7.9725 3.2001 6.27182 3.9486 5.02707 5.16521C3.74432 6.41895 2.94961 8.166 2.94961 10.1001C2.94961 11.3425 3.27807 12.5085 3.85299 13.5158L4.00347 12.0862C4.03519 11.7849 4.23445 11.5273 4.51817 11.4209L6.3098 10.7491L5.58502 9.40303C5.49471 9.23531 5.46721 9.04087 5.50746 8.85469L6.16983 5.79125C6.24943 5.42308 6.57508 5.16031 6.95176 5.16031H11.1148L13.0431 3.98192C12.088 3.48242 11.0017 3.2001 9.84961 3.2001ZM14.4765 4.98108L11.7571 6.64294C11.6315 6.7197 11.4871 6.76031 11.3399 6.76031H7.59727L7.1337 8.90434L7.95704 10.4334L12.9692 11.5555L16.6147 8.73464C16.4964 8.14499 16.303 7.58297 16.045 7.05862C15.6566 6.26906 15.1219 5.56482 14.4765 4.98108ZM16.7263 10.6713L13.651 13.0511C13.4626 13.1968 13.2191 13.2511 12.9867 13.1991L9.45264 12.4079L11.1674 14.8575C11.4087 15.2022 11.3417 15.675 11.014 15.9391L9.69976 16.9985C9.74958 16.9996 9.79953 17.0001 9.84961 17.0001C11.7081 17.0001 13.3936 16.2664 14.6349 15.0711C15.811 13.9387 16.5852 12.3951 16.7263 10.6713ZM7.60932 16.6285L9.42788 15.1626L7.27994 12.0941L5.54292 12.7454L5.27738 15.2681C5.95038 15.864 6.74067 16.3305 7.60932 16.6285Z"/>
</svg>