<svg xmlns="http://www.w3.org/2000/svg" viewBox="0 0 24 24" fill="currentColor"><path fill-rule="evenodd" d="M11.671 1.506a1.544 1.544 0 0 0-1.531 1.56l.003.261c.007.691-.478 1.285-1.117 1.549-.623.258-1.35.182-1.833-.29l-.237-.231a1.544 1.544 0 0 0-2.18.02l-.429.437c-.599.609-.59 1.589.021 2.186l.172.168c.495.485.58 1.236.313 1.877-.26.627-.837 1.107-1.516 1.114l-.31.004c-.85.01-1.533.705-1.526 1.556l.005.612c.007.854.707 1.54 1.561 1.53l.239-.002c.692-.007 1.286.477 1.554 1.116.262.627.188 1.363-.288 1.85l-.217.221a1.544 1.544 0 0 0 .021 2.18l.436.429c.609.6 1.589.59 2.186-.021l.182-.186c.481-.492 1.225-.577 1.861-.315.628.258 1.108.833 1.116 1.51l.003.332c.01.85.706 1.533 1.557 1.526l.611-.005a1.544 1.544 0 0 0 1.531-1.56l-.003-.29c-.008-.683.47-1.27 1.099-1.535.62-.26 1.348-.187 1.83.284l.258.252a1.544 1.544 0 0 0 2.18-.02l.429-.437c.6-.609.59-1.589-.021-2.186l-.222-.218c-.487-.476-.572-1.212-.312-1.842.256-.618.824-1.09 1.493-1.098l.381-.005a1.544 1.544 0 0 0 1.527-1.556l-.005-.611a1.544 1.544 0 0 0-1.561-1.532l-.31.004c-.683.007-1.269-.47-1.53-1.1-.257-.617-.182-1.338.285-1.815l.267-.273a1.544 1.544 0 0 0-.021-2.18l-.436-.429c-.609-.6-1.589-.59-2.186.021l-.203.208c-.48.49-1.224.574-1.858.31-.618-.259-1.09-.828-1.097-1.498l-.004-.36A1.544 1.544 0 0 0 12.282 1.5zm.206 14.817c2.36 0 4.273-1.935 4.273-4.323s-1.913-4.323-4.273-4.323S7.605 9.612 7.605 12s1.913 4.323 4.272 4.323" clip-rule="evenodd"/></svg>