<svg xmlns="http://www.w3.org/2000/svg" viewBox="0 0 24 24" fill="currentColor"><path fill-rule="evenodd" d="M2.04 6.72c0-1.458 1.19-2.64 2.656-2.64h14.608a2.65 2.65 0 0 1 2.656 2.64v1.44c0 1.458-1.19 2.64-2.656 2.64H4.696A2.65 2.65 0 0 1 2.04 8.16zm4.8.72a1.44 1.44 0 1 1-2.88 0 1.44 1.44 0 0 1 2.88 0M2.04 15.84c0-1.458 1.19-2.64 2.656-2.64h14.608a2.65 2.65 0 0 1 2.656 2.64v1.44c0 1.458-1.19 2.64-2.656 2.64H4.696a2.65 2.65 0 0 1-2.656-2.64zm4.8.72a1.44 1.44 0 1 1-2.88 0 1.44 1.44 0 0 1 2.88 0" clip-rule="evenodd"/></svg>